<?xml version="1.0" encoding="UTF-8"?>
<svg id="Capa_1" xmlns="http://www.w3.org/2000/svg" version="1.1" viewBox="0 0 534 87">
  <!-- Generator: Adobe Illustrator 30.0.0, SVG Export Plug-In . SVG Version: 2.1.1 Build 123)  -->
  <defs>
    <style>
      .st0 {
        fill: #30302e;
      }
    </style>
  </defs>
  <path class="st0" d="M70.2,73.8c-6.2-1.1-11.5-2.9-15.6-4.6-1.2-.5-2.7-.5-3.9,0-4.2,1.7-9.4,3.5-15.6,4.6-7.2,1.3-13.5,1.4-18.3,1.1,2.3,2.3,5.6,5.2,10.1,7.7,3.9,2.3,7.5,3.6,10.4,4.4,2.8-.5,6-1.2,9.3-2.2,1.5-.4,3.1-.9,4.5-1.4,1.1-.4,2.3-.4,3.4,0,1.1.4,2.9,1,4.5,1.4,3.3,1,6.4,1.7,9.3,2.2,2.8-.8,6.5-2.2,10.4-4.4,4.5-2.6,7.7-5.4,10.1-7.7-4.8.3-11.1,0-18.3-1.1h-.3Z"/>
  <path class="st0" d="M76,56.3c-9.4-1.4-16.7-4.7-21.4-7.3-1.2-.7-2.8-.7-4.1,0-4.7,2.6-12,6-21.4,7.3-11.3,1.7-20.4-.2-25.6-1.7.6,2.3,1.7,5.4,3.5,8.7,1.5,2.6,3.1,4.7,4.5,6.3,5.7.6,13.6.8,22.7-1,6.6-1.2,12.3-3.1,16.7-5s2.2-.4,3.3,0c4.4,1.9,10,3.8,16.7,5,9.1,1.8,17,1.5,22.7,1,1.4-1.5,3.1-3.7,4.5-6.3,1.9-3.3,2.9-6.4,3.5-8.7-5.1,1.5-14.3,3.3-25.6,1.7h0Z"/>
  <path class="st0" d="M105.1,33.8c-3.4,1.8-13.5,6.2-26.7,4.1-11.9-1.9-19.9-8-23.8-11.8-1.2-1.1-3-1.1-4.2,0-3.9,3.7-11.9,9.9-23.8,11.8-13.1,2.1-23.2-2.4-26.6-4.1-.1,2.2-.2,5,.1,8,.4,2.9.9,5.4,1.5,7.5,4.8,1.6,14.5,4.2,26.5,2.3,10.4-1.5,18.1-5.6,22.6-8.6,1-.7,2.3-.7,3.3,0,4.5,2.9,12.3,7,22.6,8.6,12.1,1.8,21.7-.7,26.5-2.3.6-2,1.2-4.6,1.5-7.5.4-3,.3-5.8,0-8h.4Z"/>
  <path class="st0" d="M62.3,13.3c-4.2-4.1-6.6-8.6-8-12.2-.6-1.5-2.7-1.5-3.3,0-1.4,3.6-3.9,8.1-8,12.2-4.7,4.6-9.8,6.9-12.8,7.9v10.7c3-.7,7.4-2.1,12.1-5.1,4-2.5,6.9-5.3,8.9-7.7.8-.9,2.2-.9,3,0,2,2.3,5,5.2,8.9,7.7,4.7,2.9,9.1,4.4,12.1,5.1v-10.7c-3-1-8-3.3-12.8-7.9,0,0,0,0-.1,0Z"/>
  <path class="st0" d="M50.7,69.1c-4.2,1.7-9.4,3.5-15.6,4.6-7.2,1.3-13.5,1.4-18.3,1.1,2.3,2.3,5.6,5.2,10.1,7.7,3.9,2.3,7.5,3.6,10.4,4.4,2.8-.5,6-1.2,9.3-2.2,1.5-.4,3.1-.9,4.5-1.4.5-.2,1.1-.3,1.7-.3v-14.5c-.7,0-1.3,0-2,.4v.2h0Z"/>
  <path class="st0" d="M50.5,49c-4.7,2.6-12,6-21.4,7.3-11.3,1.7-20.4-.2-25.6-1.7.6,2.3,1.7,5.4,3.5,8.7,1.5,2.6,3.1,4.7,4.5,6.3,5.7.6,13.6.8,22.7-1,6.6-1.2,12.3-3.1,16.7-5,.5-.2,1.1-.4,1.6-.4v-14.9c-.7,0-1.4,0-2,.5h0v.2Z"/>
  <path class="st0" d="M50.5,26.1c-3.9,3.7-11.9,9.9-23.8,11.8-13.1,2.1-23.2-2.3-26.7-4.1-.1,2.2-.2,5,.1,8,.4,2.9.9,5.4,1.5,7.5,4.8,1.6,14.5,4.2,26.5,2.3,10.4-1.5,18.1-5.6,22.6-8.6.5-.3,1.1-.5,1.6-.5v-17.3c-.7,0-1.5.3-2,.8h.2Z"/>
  <path class="st0" d="M51,1.1c-1.4,3.6-3.9,8.1-8,12.2-4.7,4.6-9.8,6.9-12.8,7.9v10.7c3-.7,7.4-2.1,12.1-5.1,4-2.5,6.9-5.3,8.9-7.7.4-.4.9-.7,1.5-.7V0c-.7,0-1.4.4-1.7,1.1h0Z"/>
  <path class="st0" d="M136.9,69.3h-8.8l15.9-45.2h10.1l15.9,45.2h-8.8l-12.1-36h-.4l-12.1,36h.3ZM137.1,51.6h23.8v6.6h-23.8v-6.6Z"/>
  <path class="st0" d="M174,69.3v-33.9h7.7v5.6h.4c.6-2,1.7-3.4,3.2-4.5s3.2-1.6,5.2-1.6.9,0,1.5,0,1,0,1.4,0v7.4c-.4,0-.9-.2-1.6-.3-.7,0-1.5,0-2.1,0-1.5,0-2.8.3-3.9,1-1.2.7-2,1.5-2.7,2.6s-1,2.4-1,3.8v20h-8.1Z"/>
  <path class="st0" d="M197.1,69.3V24.1h8v45.2h-8ZM204.4,58.7v-9.7h1.2l12.2-13.6h9.3l-15,16.7h-1.7l-6.1,6.6h.1ZM218.4,69.3l-11-15.4,5.4-5.6,15.2,21.1h-9.6,0Z"/>
  <path class="st0" d="M240.6,70c-2.1,0-4.1-.4-5.8-1.2-1.7-.8-3.1-1.9-4.1-3.4s-1.5-3.4-1.5-5.6.4-3.5,1-4.8c.7-1.2,1.7-2.3,2.9-3s2.6-1.3,4.2-1.7c1.5-.4,3.1-.7,4.7-.9,2-.2,3.6-.4,4.8-.6,1.2,0,2.1-.4,2.7-.8.6-.4.9-1,.9-1.7h0c0-1.8-.5-3.1-1.5-4-.9-.9-2.4-1.4-4.2-1.4s-3.5.4-4.7,1.3c-1.2.9-1.9,1.8-2.3,3l-7.4-1c.6-2,1.5-3.8,2.9-5.2s3-2.4,5-3.1c2-.7,4.1-1,6.5-1s3.3.2,4.9.6,3.1,1,4.5,1.9c1.3.9,2.4,2,3.2,3.6.8,1.5,1.2,3.4,1.2,5.6v22.7h-7.7v-4.7h-.3c-.5,1-1.2,1.8-2,2.6-.9.8-2,1.5-3.3,2s-2.8.7-4.6.7h0ZM242.8,64.1c1.6,0,3-.3,4.2-1s2.1-1.5,2.7-2.6c.7-1,.9-2.2.9-3.4v-4c-.2.2-.7.4-1.2.6-.6,0-1.2.4-2,.4-.7,0-1.5.2-2.2.4-.7,0-1.3.2-1.9.3-1.2,0-2.3.4-3.2.8-.9.4-1.7.9-2.2,1.5-.5.7-.8,1.5-.8,2.6s.5,2.6,1.6,3.4c1.1.7,2.4,1.1,4.1,1.1h0Z"/>
  <path class="st0" d="M303.8,36.6c-.2-1.9-1.1-3.4-2.6-4.5-1.5-1.1-3.5-1.6-5.9-1.6s-3.1.3-4.4.8c-1.2.5-2.1,1.2-2.8,2.1-.7.9-.9,1.9-1,3,0,1,.2,1.8.7,2.5.4.7,1,1.2,1.8,1.8.7.5,1.6.9,2.5,1.2s1.8.6,2.8.8l4.2,1c1.7.4,3.4,1,4.9,1.6,1.6.7,3,1.5,4.2,2.6,1.2,1,2.3,2.3,3,3.7.7,1.5,1.1,3.1,1.1,5.1s-.7,5-2,7c-1.4,2-3.3,3.6-5.8,4.7-2.6,1.1-5.6,1.7-9.3,1.7s-6.6-.5-9.1-1.6c-2.6-1.1-4.6-2.7-6.1-4.8-1.5-2.1-2.3-4.6-2.3-7.6h8c.1,1.6.6,2.9,1.5,3.9s2,1.8,3.4,2.3,2.9.8,4.6.8,3.4-.3,4.7-.8c1.3-.5,2.4-1.3,3.1-2.3s1.2-2.1,1.2-3.4-.4-2.1-1-2.9c-.7-.8-1.6-1.4-2.8-2-1.2-.5-2.6-1-4.2-1.4l-5.1-1.3c-3.7-1-6.6-2.4-8.8-4.4-2.1-2-3.2-4.5-3.2-7.7s.7-5,2.2-7,3.4-3.6,5.9-4.7,5.3-1.7,8.5-1.7,6,.6,8.4,1.7,4.3,2.6,5.7,4.6c1.4,2,2.1,4.2,2.1,6.8h-7.9.1-.3Z"/>
  <path class="st0" d="M332.4,70c-3.3,0-6.2-.7-8.6-2.2s-4.3-3.5-5.6-6.1c-1.3-2.6-2-5.7-2-9.2s.7-6.6,2-9.2c1.3-2.6,3.2-4.7,5.6-6.1s5.3-2.2,8.6-2.2,6.2.7,8.6,2.2,4.3,3.5,5.6,6.1c1.3,2.6,2,5.7,2,9.2s-.7,6.6-2,9.2c-1.3,2.6-3.2,4.7-5.6,6.1-2.4,1.5-5.3,2.2-8.6,2.2ZM332.4,63.6c1.8,0,3.3-.5,4.5-1.5s2.1-2.3,2.7-4,.9-3.6.9-5.6-.3-3.9-.9-5.6c-.6-1.7-1.5-3-2.7-4s-2.7-1.5-4.5-1.5-3.4.5-4.6,1.5-2.1,2.3-2.7,4-.9,3.6-.9,5.6.3,3.9.9,5.6c.6,1.7,1.5,3,2.7,4s2.7,1.5,4.6,1.5Z"/>
  <path class="st0" d="M371,35.5v6.2h-20v-6.2h20ZM356,69.3v-37.1c0-2.3.4-4.2,1.4-5.7.9-1.5,2.2-2.6,3.8-3.4,1.6-.7,3.4-1.1,5.3-1.1s2.6.1,3.7.4c1.1.2,1.9.4,2.4.6l-1.6,6.2c-.4,0-.7-.2-1.3-.3-.5-.1-1.1-.1-1.8-.1-1.5,0-2.6.4-3.1,1.1-.6.7-.9,1.8-.9,3.1v36.6h-8,.2v-.3Z"/>
  <path class="st0" d="M392.6,35.5v6.2h-19.5v-6.2h19.5ZM377.9,27.3h8v31.8c0,1.1.1,1.9.5,2.5s.8,1,1.3,1.2,1.2.3,1.8.3.9,0,1.4,0c.4,0,.7,0,.9-.2l1.3,6.2c-.4,0-1,.3-1.8.5s-1.8.3-2.8.3c-2,0-3.8-.2-5.4-1-1.6-.7-2.8-1.7-3.8-3.1-.9-1.4-1.4-3.1-1.4-5.3V27.3h0Z"/>
  <path class="st0" d="M404.7,69.3l-9.6-33.9h8.1l6,23.8h.3l6.1-23.8h8l6.1,23.7h.4l5.8-23.7h8.2l-9.6,33.9h-8.3l-6.4-22.9h-.4l-6.4,22.9h-8.3Z"/>
  <path class="st0" d="M457.9,70c-2.1,0-4.1-.4-5.8-1.2-1.7-.8-3.1-1.9-4.1-3.4s-1.5-3.4-1.5-5.6.4-3.5,1-4.8c.7-1.2,1.7-2.3,2.9-3,1.2-.7,2.6-1.3,4.2-1.7,1.5-.4,3.1-.7,4.7-.9,2-.2,3.6-.4,4.8-.6,1.2,0,2.1-.4,2.7-.8.6-.4.9-1,.9-1.7h0c0-1.8-.5-3.1-1.5-4-.9-.9-2.4-1.4-4.2-1.4s-3.5.4-4.7,1.3c-1.2.9-1.9,1.8-2.3,3l-7.4-1c.6-2,1.5-3.8,2.9-5.2s3-2.4,5-3.1c2-.7,4.1-1,6.5-1s3.3.2,4.9.6c1.6.4,3.1,1,4.5,1.9,1.3.9,2.4,2,3.2,3.6.8,1.5,1.2,3.4,1.2,5.6v22.7h-7.7v-4.7h-.3c-.5,1-1.2,1.8-2,2.6-.9.8-2,1.5-3.3,2s-2.8.7-4.6.7h0ZM460,64.1c1.6,0,3-.3,4.2-1s2.1-1.5,2.7-2.6c.7-1,.9-2.2.9-3.4v-4c-.2.2-.7.4-1.2.6-.6,0-1.2.4-2,.4-.7,0-1.5.2-2.2.4-.7,0-1.3.2-1.9.3-1.2,0-2.3.4-3.2.8-.9.4-1.7.9-2.2,1.5-.5.7-.8,1.5-.8,2.6s.5,2.6,1.6,3.4c1.1.7,2.4,1.1,4.1,1.1h0Z"/>
  <path class="st0" d="M482.3,69.3v-33.9h7.7v5.6h.4c.6-2,1.7-3.4,3.2-4.5s3.2-1.6,5.2-1.6.9,0,1.5,0,1,0,1.4,0v7.4c-.4,0-.9-.2-1.6-.3-.7,0-1.5,0-2.1,0-1.5,0-2.8.3-3.9,1-1.2.7-2,1.5-2.7,2.6s-1,2.4-1,3.8v20h-8.1Z"/>
  <path class="st0" d="M519,70c-3.4,0-6.4-.7-8.8-2.1-2.5-1.4-4.4-3.4-5.7-6.1-1.3-2.6-2-5.7-2-9.2s.7-6.6,2-9.2c1.3-2.6,3.2-4.7,5.6-6.2s5.2-2.2,8.5-2.2,4.1.4,5.9,1,3.5,1.7,5,3.1c1.5,1.4,2.6,3.1,3.4,5.3.8,2.1,1.2,4.8,1.2,7.7v2.5h-27.8v-5.4h20.1c0-1.5-.4-2.9-1-4.1-.7-1.2-1.5-2.1-2.7-2.9-1.2-.7-2.5-1-4-1s-3.1.4-4.3,1.2-2.2,1.8-2.8,3.1c-.7,1.2-1,2.6-1,4.2v4.7c0,2,.4,3.7,1.1,5,.7,1.4,1.8,2.5,3,3.2,1.3.7,2.8,1.1,4.5,1.1s2.2,0,3.1-.5c.9-.4,1.8-.8,2.5-1.5s1.2-1.5,1.5-2.4l7.4.8c-.4,2-1.4,3.7-2.7,5.2s-3,2.6-5,3.4c-2,.7-4.4,1.2-7,1.2v.2h0Z"/>
</svg>