<?xml version="1.0" encoding="UTF-8"?>
<svg id="Capa_1" xmlns="http://www.w3.org/2000/svg" xmlns:xlink="http://www.w3.org/1999/xlink" version="1.1" viewBox="0 0 232 49">
  <!-- Generator: Adobe Illustrator 30.0.0, SVG Export Plug-In . SVG Version: 2.1.1 Build 123)  -->
  <defs>
    <style>
      .st0 {
        fill: none;
      }

      .st1, .st2 {
        fill: #30302e;
      }

      .st3 {
        clip-path: url(#clippath);
      }

      .st2 {
        opacity: .5;
      }
    </style>
    <clipPath id="clippath">
      <rect class="st0" width="231.3" height="48.6"/>
    </clipPath>
  </defs>
  <g class="st3">
    <g>
      <path class="st1" d="M48,30.7c0-7,5.5-12.5,12.9-12.5s11.1,3.9,12.5,9.4h-5.9c-.7-1.5-1.9-2.7-3.3-3.4-1.5-.7-3.1-.9-4.7-.6-1.6.4-3,1.2-4,2.5-1,1.3-1.6,2.9-1.6,4.5s.6,3.2,1.6,4.5c1,1.3,2.4,2.2,4,2.5,1.6.4,3.3.2,4.7-.6,1.5-.7,2.6-1.9,3.3-3.4h5.9c-1.3,5.5-6.1,9.4-12.5,9.4s-12.9-5.5-12.9-12.5Z"/>
      <path class="st1" d="M104,38v4.7c-.6.3-1.2.5-1.9.5-1.3,0-2.7-.4-3.8-1.1-1.1-.7-2.1-1.7-2.7-2.9-1,1.3-2.4,2.3-3.8,3-1.5.7-3.1,1-4.7,1-6.8,0-12.2-5.5-12.2-12.5s5.4-12.5,12.2-12.5c2.9,0,5.6,1.1,7.7,3v-2.5h5.7v16.6c0,2.1,1.1,2.7,2.2,2.7h1.3ZM94.9,30.7c0-1.4-.4-2.8-1.2-4-.8-1.2-1.9-2.1-3.2-2.6-1.3-.5-2.8-.7-4.2-.4-1.4.3-2.7,1-3.7,2-1,1-1.7,2.3-2,3.7-.3,1.4-.1,2.8.4,4.2.5,1.3,1.5,2.4,2.6,3.2,1.2.8,2.6,1.2,4,1.2.9,0,1.9-.2,2.8-.5.9-.4,1.7-.9,2.3-1.6.7-.7,1.2-1.5,1.6-2.3.4-.9.5-1.8.5-2.8Z"/>
      <path class="st1" d="M128.4,18.7l-9.7,24h-5.4l-9.6-24h6.1l6.2,17.8,6.3-17.8h6Z"/>
      <path class="st1" d="M158.7,38v4.7c-.6.3-1.2.5-1.9.5-1.3,0-2.7-.4-3.8-1.1-1.1-.7-2.1-1.7-2.7-2.9-1,1.3-2.3,2.3-3.8,3-1.5.7-3.1,1.1-4.7,1-6.8,0-12.2-5.5-12.2-12.5s5.4-12.5,12.2-12.5c2.9,0,5.6,1.1,7.7,3v-2.5h5.7v16.6c0,2.1,1.1,2.7,2.2,2.7h1.3ZM149.6,30.7c0-1.4-.4-2.8-1.2-4-.8-1.2-1.9-2.1-3.2-2.6-1.3-.5-2.8-.7-4.2-.4-1.4.3-2.7,1-3.7,2s-1.7,2.3-2,3.7c-.3,1.4-.1,2.8.4,4.2.5,1.3,1.5,2.4,2.6,3.2,1.2.8,2.6,1.2,4,1.2.9,0,1.9-.2,2.8-.5.9-.4,1.7-.9,2.3-1.6.7-.7,1.2-1.5,1.6-2.3.4-.9.5-1.8.5-2.8Z"/>
      <path class="st1" d="M162.3,0h5.7v42.7h-5.7V0Z"/>
      <path class="st1" d="M174.4,11.1c0-.7.2-1.4.5-1.9.4-.6.9-1,1.5-1.3.6-.3,1.3-.4,2-.2.7.1,1.3.4,1.8.9.5.5.8,1.1,1,1.8.1.7,0,1.4-.2,2s-.7,1.2-1.3,1.6c-.6.4-1.2.6-1.9.6-.9,0-1.8-.4-2.4-1-.6-.6-1-1.5-1-2.4ZM175,18.7h5.6v24h-5.6v-24Z"/>
      <path class="st1" d="M211.4,31.6h-19.7c.3,4,3.1,6.8,7.1,6.8s5.5-1.6,6.5-4.1h5.7c-1.4,5.2-6,8.9-12.2,8.9s-12.9-5.3-12.9-12.5,5.5-12.5,12.8-12.5,12.5,5.2,12.6,12.3v1ZM192.2,27.5h13c-1-2.8-3.2-4.5-6.4-4.5-1.4,0-2.8.4-4,1.2-1.2.8-2.1,2-2.6,3.3Z"/>
      <path class="st1" d="M231.3,18.4v5.3c-.7-.1-1.4-.2-2-.2-4.1,0-7.3,2.8-7.3,7v12.2h-5.7v-24h5.7v3.3c.8-1.2,1.9-2.1,3.2-2.8s2.7-1,4.1-1c.6,0,1.3,0,1.9.2Z"/>
      <path class="st1" d="M111.7,19.1h2.5l1.8,6.4,1.9-6.4h2.5l-4.3,12.4-4.3-12.4Z"/>
      <path class="st2" d="M31.7,48.6H9c-2.4,0-4.7-1-6.4-2.6C1,44.3,0,42,0,39.6v-22.7c0-1.2.2-2.4.7-3.5.5-1.1,1.1-2.1,2-2.9.8-.8,1.8-1.5,2.9-2,1.1-.5,2.3-.7,3.5-.7h22.7c2.4,0,4.7,1,6.4,2.7,1.7,1.7,2.6,4,2.6,6.4v22.7c0,2.4-1,4.7-2.6,6.4s-4,2.6-6.4,2.7Z"/>
      <path class="st1" d="M24.8,21.6c2.3-.3,4.6-.3,6.8-.2,0,0,.1,0,.2,0,0,0,0,0,.1,0,0,0,0,0,0-.1,0,0,0-.1,0-.2v-4.4c0-.1,0-.2-.1-.3,0,0-.2-.1-.3-.1h0l-7.5.4s-2.4,0-3.8,1.7c-1.4-1.7-3.8-1.7-3.8-1.7l-7.5-.4h0c-.1,0-.2,0-.3.1,0,0-.1.2-.1.3v4.4c0,.1,0,.2.1.3,0,0,.2.1.3.1,1.3,0,6.1-.1,8,.5.8.2,1.6.6,2.3,1.1.3.2.6.3,1,.3s.7-.1,1-.3c1.1-.7,2.3-1.1,3.5-1.3Z"/>
      <path class="st1" d="M24.8,30.1c2.3-.3,4.6-.3,6.8-.2,0,0,.1,0,.2,0,0,0,0,0,.1,0,0,0,0,0,0-.1,0,0,0-.1,0-.2v-4.4c0-.1,0-.2-.1-.3,0,0-.2-.1-.3-.1h0l-7.5.4s-2.4,0-3.8,1.7c-1.4-1.7-3.8-1.7-3.8-1.7l-7.5-.4h0c-.1,0-.2,0-.3.1,0,0-.1.2-.1.3v4.4c0,0,0,.1,0,.2,0,0,0,0,0,.1,0,0,0,0,.1,0,0,0,.1,0,.2,0,1.3,0,6.1-.1,8,.5.8.2,1.6.6,2.3,1.1.3.2.6.3,1,.3s.7-.1,1-.3c1.1-.7,2.3-1.1,3.5-1.3Z"/>
      <path class="st1" d="M24.8,38.6c2.3-.3,4.6-.3,6.8-.2,0,0,.1,0,.2,0,0,0,0,0,.1,0,0,0,0,0,0-.1,0,0,0-.1,0-.2v-4.4c0-.1,0-.2-.1-.3,0,0-.2-.1-.3-.1h0l-7.5.4s-2.4,0-3.8,1.7c-1.4-1.7-3.8-1.7-3.8-1.7l-7.5-.4h0c-.1,0-.2,0-.3.1,0,0-.1.2-.1.3v4.4c0,.1,0,.2.1.3,0,0,.2.1.3.1,1.3,0,6.1-.1,8,.5.8.2,1.6.6,2.3,1.1.3.2.6.3,1,.3s.7-.1,1-.3c1.1-.7,2.3-1.1,3.5-1.3Z"/>
    </g>
  </g>
</svg>