<?xml version="1.0" encoding="UTF-8"?>
<svg id="uuid-61ddd13a-e384-434a-ae9a-f7a0916ce250" xmlns="http://www.w3.org/2000/svg" version="1.1" viewBox="0 0 864.3 148.2">
  <!-- Generator: Adobe Illustrator 30.0.0, SVG Export Plug-In . SVG Version: 2.1.1 Build 123)  -->
  <defs>
    <style>
      .st0, .st1, .st2 {
        fill: #30302e;
      }

      .st1 {
        isolation: isolate;
      }

      .st1, .st2 {
        opacity: .5;
      }
    </style>
  </defs>
  <g id="uuid-f139eb13-4423-4361-80e6-fa7bb609921b">
    <path class="st0" d="M195.2,119.6V25h30.7c28.3,0,47.4,19.1,47.4,47.4s-18.8,47.2-46.8,47.2h-31.3ZM208.1,36.7v70.9h17.5c21.1,0,34.4-13.6,34.4-35.3s-13.3-35.6-34.9-35.6h-17,0Z"/>
    <path class="st0" d="M283.8,101.8c0-11.8,8.8-19.1,23.8-20.3l20.1-1.6v-1.8c0-10.7-6.4-14.5-15-14.5s-16.2,4.6-16.2,12.3h-10.7c0-13.3,11-22.1,27.5-22.1s26.6,8.4,26.6,25.6v40.2h-10.5l-1.3-10.3c-3.3,7.3-12,11.9-22.4,11.9s-21.9-7.7-21.9-19.4h0ZM327.9,91.9v-3.4l-16.4,1.3c-10.9,1.1-15.3,5.2-15.3,11.5s5,10.2,13,10.2c11.6,0,18.7-7.6,18.7-19.6Z"/>
    <path class="st0" d="M360.8,119.6v-53.6h-12.6v-10.3h12.6v-20h12.3v20h12.6v10.3h-12.6v53.6h-12.3Z"/>
    <path class="st0" d="M392.1,101.8c0-11.8,8.8-19.1,23.8-20.3l20.1-1.6v-1.8c0-10.7-6.4-14.5-15-14.5s-16.2,4.6-16.2,12.3h-10.7c0-13.3,11-22.1,27.5-22.1s26.6,8.4,26.6,25.6v40.2h-10.5l-1.3-10.3c-3.3,7.3-12,11.9-22.4,11.9s-21.9-7.7-21.9-19.4h0ZM436.2,91.9v-3.4l-16.4,1.3c-10.9,1.1-15.3,5.2-15.3,11.5s5,10.2,13,10.2c11.6,0,18.7-7.6,18.7-19.6Z"/>
    <path class="st0" d="M493.6,23.3c18,0,29.7,10.1,30.7,26.4h-13c-.6-9.4-7.3-14.9-17.9-14.9s-19.6,6-19.6,15.3,4.3,12.2,13.2,14.3l15.6,3.7c15.4,3.5,23.3,11.9,23.3,25.2s-13.2,27.9-33.4,27.9-32-10.1-32.8-26.3h13.1c.3,9,7.9,14.8,19.8,14.8s20.5-5.9,20.5-15.3-4-12.2-13.1-14.3l-15.6-3.5c-15.4-3.5-23.4-12.4-23.4-26s13.1-27.2,32.6-27.2h0Z"/>
    <path class="st0" d="M539.3,55.6h11.1l.9,11.5c4.3-8.8,13-13.3,23.2-13.3,18.3,0,29.7,13.7,29.7,33.4s-10.7,34.1-29.7,34.1-18.7-4.3-22.9-12.2v39.1h-12.3V55.6ZM571.8,110.1c12.6,0,20-9.4,20-22.5s-7.5-22.6-20-22.6-20.2,9.3-20.2,22.6,7.6,22.5,20.2,22.5Z"/>
    <path class="st0" d="M617.1,119.4V23.3h12.3v42.1c4.1-6.9,11.8-11.6,21.7-11.6,16.3,0,24.2,10.3,24.2,26.7v39.1h-12.3v-36.4c0-12.9-6.2-18.2-15.3-18.2s-18.3,8.6-18.3,19.6v34.8h-12.3Z"/>
    <path class="st0" d="M687.5,87.6c0-20,12.7-33.9,31.3-33.9s30.1,12.6,30.1,31.5v4.6h-49.5c.9,13.6,8,21.1,20.2,21.1s15.8-3.9,17.9-11.2h11.5c-3.1,13.7-13.9,21.4-29.7,21.4s-31.8-13.6-31.8-33.5h0ZM699.6,81.7h36.9c0-10.6-6.9-17.7-17.8-17.7s-17.5,6.4-19.1,17.7h0Z"/>
    <path class="st0" d="M798.5,66.3h-5.5c-11.6,0-18.8,7.1-18.8,19.4v33.9h-12.3v-63.8h11.5l.8,9.7c2.6-6.7,9-11.1,17.8-11.1s4.1.3,6.5.8v11.3h0Z"/>
    <path class="st0" d="M802.8,87.6c0-20,12.7-33.9,31.3-33.9s30.1,12.6,30.1,31.5v4.6h-49.5c.9,13.6,8,21.1,20.2,21.1s15.8-3.9,17.9-11.2h11.5c-3.1,13.7-13.9,21.4-29.7,21.4s-31.8-13.6-31.8-33.5h0ZM815,81.7h36.9c0-10.6-6.9-17.7-17.8-17.7s-17.5,6.4-19.1,17.7h0Z"/>
    <circle class="st2" cx="72.5" cy="72.5" r="72.5"/>
    <path class="st1" d="M74.6,72.4l-1.2-1.3c-11.5-12.3-22.2-23.9-38.1-31.6-1.6-.8-4-1.5-5.1-2-6.8,7.8-10.8,18.2-12.2,27.4,21,9.5,26.5,17.1,37.4,28.9l1.2,1.3c7.6,8.2,14.7,15.9,21.9,20.4,6,3.8,9.2,5.8,17.6,6.6,10.1-4.8,18.4-12.6,24-22.3-10.5-.2-16.6-2.6-23.6-7s-14.3-12.3-21.9-20.4h0Z"/>
    <path class="st0" d="M56.7,95l-1.2-1.3c-11-11.8-16.8-19.8-37.4-28.9-.3,3.4-.5,4.1-.5,7.7,0,30.3,24.6,54.9,54.9,54.9s16.5-1.9,23.7-5.4c-8.4-.8-11.6-2.8-17.6-6.6-7.2-4.6-14.3-12.3-21.9-20.4h0Z"/>
  </g>
</svg>