<?xml version="1.0" encoding="UTF-8"?>
<svg id="Capa_1" xmlns="http://www.w3.org/2000/svg" xmlns:xlink="http://www.w3.org/1999/xlink" version="1.1" viewBox="0 0 216 73">
  <!-- Generator: Adobe Illustrator 30.0.0, SVG Export Plug-In . SVG Version: 2.1.1 Build 123)  -->
  <defs>
    <style>
      .st0 {
        fill: none;
      }

      .st1 {
        fill: #41403f;
        opacity: .5;
      }

      .st2 {
        fill: #30302e;
      }

      .st3 {
        clip-path: url(#clippath);
      }
    </style>
    <clipPath id="clippath">
      <rect class="st0" width="215.3" height="73"/>
    </clipPath>
  </defs>
  <g class="st3">
    <g>
      <path class="st2" d="M212.4,57.7c-1.6,0-2.8-1.3-2.8-2.8s1.3-2.8,2.8-2.8,2.8,1.3,2.8,2.8-1.3,2.8-2.8,2.8ZM212.4,52.4c-1.4,0-2.5,1.1-2.5,2.5s1.1,2.5,2.5,2.5,2.5-1.1,2.5-2.5-1-2.5-2.5-2.5ZM213.1,55.2l.7,1.1h-.8l-.7-1h-.5v1h-.7v-3h1.4c.7,0,1.2.4,1.2,1s-.2.8-.7.9ZM212.5,53.9h-.7v.9h.7c.3,0,.5-.2.5-.4,0-.3-.2-.5-.5-.5Z"/>
      <path class="st2" d="M2.6,44.4l-2.6,6.8h14.7l-2.6,6.8h55.1l2.6-6.8H14.8l1.1-2.7h55.1l.5-1.3H16.4c0,.1,1.1-2.7,1.1-2.7H2.6Z"/>
      <path class="st2" d="M75.2,37.6H20.3l2.6-6.8h-14.8l-2.6,6.8h14.7l-1.1,2.9H4.1l-.5,1.2h14.9s-1.1,2.7-1.1,2.7h55.1l2.6-6.8Z"/>
      <path class="st2" d="M84.1,52.4h-4.2l-2.1,5.6h-8.9l2-5,5.9-15.4h18.5c5.2,0,9.6.2,6.7,7.7-1.7,4.4-4.5,6.1-8.2,6.6l3.5,6.1h-10.3l-2.8-5.5ZM82.1,46.4h8.8c2.3,0,2.8,0,3.3-1.2.5-1.2,0-1.3-2.3-1.3h-8.8l-1,2.5Z"/>
      <path class="st2" d="M119,58.4h-10.6c-5.2,0-8.6-3.4-5.8-10.7,2.8-7.2,9-10.6,14.1-10.6h10.6c5.2,0,8.5,3.4,5.7,10.6-2.8,7.3-8.8,10.7-14,10.7ZM119.7,52.2c2.3,0,4.2-.8,5.6-4.4,1.4-3.6.2-4.4-2.1-4.4h-7.1c-2.3,0-4.3.8-5.7,4.4-1.4,3.7-.4,4.4,2.2,4.4h7.2Z"/>
      <path class="st2" d="M127.8,57.9l18.4-20.4h11.2l2.6,20.4h-9.2l-.4-2.9h-10.7l-2.7,2.9h-9.2ZM144.6,49.2h5.6l-.4-6.1-5.2,6.1Z"/>
      <path class="st2" d="M196.8,57.9h-35.7l7.9-20.4h35.7c5.2,0,9.1,3,6.3,10.2-2.8,7.3-9.1,10.2-14.2,10.2ZM203,47.7c.9-2.4.4-3.7-1.9-3.7h-25.8l-2.9,7.5h25.8c2.3,0,3.8-1.3,4.8-3.8Z"/>
      <path class="st2" d="M81,14h8.9l-7.9,20.4h-8.9l7.9-20.4Z"/>
      <path class="st2" d="M91.8,14h25.5l-2.3,6h-16.7l-.7,1.8h15.3l-1.9,4.8h-15.3l-.7,1.8h16.7l-2.3,6h-25.5l7.9-20.4Z"/>
      <path class="st2" d="M143.8,27.9c-2.2,5.6-6.4,7-11.2,7h-13.3c-6.2,0-7.7-2.4-5.7-7.6h8.5c-.4,1.2.9,1.2,1.9,1.2,3.2,0,8.9,0,10.4,0s1.3-.3,1.6-1.2c.2-.6,0-.8-.9-.8-4.2,0-8.4-.2-12.5-.3-5.3,0-8-1.1-6.3-5.6,2.2-5.6,6.4-7,11.2-7h12.8c6.2,0,7.7,2.4,5.7,7.6h-8.5c.4-1.2-.8-1.2-1.9-1.2h-9.9c-.8,0-1.2.3-1.5,1.2-.2.6,0,.7.8.7,4.2,0,8.4.2,12.6.3,5.2,0,8,1.1,6.3,5.6Z"/>
      <path class="st2" d="M150.6,14h25.5l-2.3,6h-16.7l-.7,1.8h15.3l-1.9,4.8h-15.3l-.7,1.8h16.7l-2.3,6h-25.5l7.9-20.4Z"/>
      <path class="st2" d="M192.5,34.4h-22.6L183,0h8.9l-10.5,27.8h13.7l-2.6,6.6Z"/>
      <path class="st2" d="M61.1,34.4H25.4l7.9-20.4h35.7c5.2,0,9.1,3,6.3,10.2-2.8,7.3-9.1,10.2-14.2,10.2ZM67.3,24.2c.9-2.4.4-3.7-1.9-3.7h-25.8l-2.9,7.5h25.8c2.3,0,3.8-1.3,4.8-3.8Z"/>
      <path class="st2" d="M27.2,69.2c-.8,2.1-2.4,2.6-4.2,2.6h-4.9c-2.3,0-2.9-.9-2.1-2.9h3.2c-.1.4.3.4.7.4h3.9c.3,0,.5-.1.6-.4,0-.2,0-.3-.3-.3-1.5,0-3.2,0-4.7-.1-2,0-3-.4-2.4-2.1.8-2.1,2.4-2.6,4.2-2.6h4.8c2.3,0,2.9.9,2.1,2.9h-3.2c.1-.4-.3-.5-.7-.5h-3.7c-.3,0-.5,0-.6.4,0,.2,0,.3.3.3,1.5,0,3.2,0,4.7.1,2,0,3,.4,2.3,2.1Z"/>
      <path class="st2" d="M30.4,63.9h9.6l-.9,2.3h-6.3l-.3.7h5.7l-.7,1.8h-5.7l-.3.6h6.3l-.9,2.3h-9.6l3-7.7Z"/>
      <path class="st2" d="M43.9,69.5h-1.6l-.8,2.1h-3.3l.7-1.9,2.2-5.8h6.9c2,0,3.6,0,2.5,2.9-.7,1.6-1.7,2.3-3.1,2.5l1.3,2.3h-3.9l-1.1-2ZM43.2,67.3h3.3c.8,0,1.1,0,1.2-.5.2-.4,0-.5-.8-.5h-3.3l-.4.9Z"/>
      <path class="st2" d="M55.8,63.9v5.6s4.2-5.6,4.2-5.6h3.6l-6.5,7.6h-4.2l-.6-7.6h3.5Z"/>
      <path class="st2" d="M64.6,63.9h3.3l-3,7.6h-3.3l2.9-7.6Z"/>
      <path class="st2" d="M73,63.8h3.7c1.8,0,3.1,1.1,2.5,3.3h-3.1c0-.6-.3-.9-.9-.9h-2.6c-.8,0-1.5.4-2,1.6-.4,1.2,0,1.6.8,1.6h2.6c.6,0,1.2-.4,1.6-.9h3.1c-1.2,2.3-3.4,3.4-5.1,3.4h-3.7c-2,0-3.4-1.3-2.3-4,1.1-2.8,3.5-4,5.4-4Z"/>
      <path class="st2" d="M81.7,63.9h9.6l-.9,2.3h-6.3l-.3.7h5.7l-.7,1.8h-5.7l-.3.6h6.3l-.9,2.3h-9.6l3-7.7Z"/>
      <path class="st2" d="M101.7,69.2c-.8,2.1-2.4,2.6-4.2,2.6h-4.9c-2.3,0-2.9-.9-2.1-2.9h3.2c-.1.4.3.4.7.4h3.9c.3,0,.5-.1.6-.4,0-.2,0-.3-.3-.3-1.5,0-3.2,0-4.7-.1-2,0-3-.4-2.4-2.1.8-2.1,2.4-2.6,4.2-2.6h4.8c2.3,0,2.9.9,2.1,2.9h-3.2c.1-.4-.3-.5-.7-.5h-3.7c-.3,0-.5,0-.6.4,0,.2,0,.3.3.3,1.5,0,3.2,0,4.7.1,2,0,3,.4,2.4,2.1Z"/>
      <path class="st1" d="M190.1,73h-86.3l4.2-10.9h86.3l-4.2,10.9Z"/>
      <path class="st2" d="M115.1,64.8l-2.5,5.8h-1.1l1-2.5-1.6,2.5h-.3l.4-2.5-1,2.5h-1.1l2.5-5.8h1.2l-.4,2.6,1.8-2.6h1.1Z"/>
      <path class="st2" d="M117.4,64.7h.5c.6,0,.9.5.7,1.1l-1.6,3.8c-.2.6-.9,1.1-1.5,1.1h-.5c-.6,0-.9-.5-.7-1.1l1.6-3.8c.2-.6.9-1.1,1.5-1.1ZM115.5,69.7c.1,0,.3,0,.3-.2l1.5-3.5c0-.1,0-.2-.1-.2s-.2,0-.3.2l-1.5,3.5c0,.1,0,.2.1.2Z"/>
      <path class="st2" d="M120.9,67.7c.4,0,.6.3.4.6l-.6,1.4c-.2.5-.8.9-1.4.9h-1.7l2.5-5.8h1.7c.5,0,.7.4.6.9l-.5,1.3c-.1.4-.6.7-.9.7ZM120.1,68.5c0-.2,0-.3-.2-.3h0l-.6,1.4h.2c.1,0,.2,0,.3-.2l.3-.9ZM120.8,65.8l-.6,1.3h0c.2,0,.4-.1.5-.3l.3-.7c0-.1,0-.2-.1-.2h-.2Z"/>
      <path class="st2" d="M121.5,70.6l2.5-5.8h1.1l-2.5,5.8h-1.1Z"/>
      <path class="st2" d="M126.5,69.6l-.4,1h-2.2l2.5-5.8h1.1l-2.1,4.8h1.2Z"/>
      <path class="st2" d="M130.5,65.8l-.6,1.3h.8l-.4,1h-.8l-.6,1.3h1.1l-.4,1h-2.2l2.5-5.8h2.2l-.4,1h-1.2Z"/>
      <path class="st2" d="M136.2,64.8c.8,0,1,.5.7,1.1l-1.5,3.6c-.3.6-.8,1.1-1.7,1.1h-1.4l2.5-5.8h1.4ZM134.1,69.6c.1,0,.2,0,.3-.2l1.4-3.3c0-.1,0-.2-.1-.2h-.2l-1.6,3.8h.2Z"/>
      <path class="st2" d="M136.2,70.6l2.5-5.8h1.1l-2.5,5.8h-1.1Z"/>
      <path class="st2" d="M141.6,65.8l-.6,1.3h.8l-.4,1h-.8l-.6,1.3h1.1l-.4,1h-2.2l2.5-5.8h2.2l-.4,1h-1.2Z"/>
      <path class="st2" d="M145.1,66.7l.3-.7c0-.1,0-.2-.1-.2s-.3,0-.3.2l-.2.6c0,.2,0,.3,0,.3h0s.7.7.7.7c0,0,.3.3,0,.9l-.4,1c-.2.6-.9,1.1-1.5,1.1h-.5c-.6,0-.9-.5-.7-1.1l.4-1h1.1l-.4.9c0,.1,0,.2.1.2s.2,0,.3-.2l.3-.7s0-.2,0-.3l-.7-.8c-.3-.3,0-.8,0-.8l.4-1c.2-.6.9-1.1,1.5-1.1h.5c.6,0,.9.5.7,1.1l-.4.9h-1.2Z"/>
      <path class="st2" d="M149,65.8l-.6,1.3h.8l-.4,1h-.8l-.6,1.3h1.1l-.4,1h-2.2l2.5-5.8h2.2l-.4,1h-1.2Z"/>
      <path class="st2" d="M151.9,69.6l-.4,1h-2.2l2.5-5.8h1.1l-2.1,4.8h1.2Z"/>
      <path class="st2" d="M160.4,64.8l-2.5,5.8h-1.1l1-2.5-1.6,2.5h-.3l.4-2.5-1,2.5h-1.1l2.5-5.8h1.2l-.4,2.6,1.8-2.6h1.1Z"/>
      <path class="st2" d="M162.3,65.8l-.6,1.3h.8l-.4,1h-.8l-.6,1.3h1.1l-.4,1h-2.2l2.5-5.8h2.2l-.4,1h-1.2Z"/>
      <path class="st2" d="M166.3,68.1l-.7,1.5c-.2.6-.9,1.1-1.5,1.1h-.5c-.6,0-.9-.5-.7-1.1l1.6-3.8c.2-.6.9-1.1,1.5-1.1h.5c.6,0,.9.5.7,1.1l-.5,1.3h-1.1l.5-1.1c0-.1,0-.2-.1-.2s-.3,0-.3.2l-1.5,3.5c0,.1,0,.2.1.2s.2,0,.3-.2l.6-1.3h1.1Z"/>
      <path class="st2" d="M171.6,64.8l-2.5,5.8h-1.1l1-2.4h-.5l-1,2.4h-1.1l2.5-5.8h1.1l-1,2.4h.5l1-2.4h1.1Z"/>
      <path class="st2" d="M170.2,70.6l3.3-5.8h1.3l-1.7,5.8h-.9l.2-.7h-.8l-.4.7h-1ZM172.1,69h.6l.6-2-1.1,2Z"/>
      <path class="st2" d="M179.4,64.8l-2.5,5.8h-1l.4-2.2-.9,2.2h-1l2.5-5.8h1v.3s-.4,2.1-.4,2.1l1-2.4h1Z"/>
      <path class="st2" d="M178.1,70.6l2.5-5.8h1.1l-2.5,5.8h-1.1Z"/>
      <path class="st2" d="M184.2,68.1l-.7,1.5c-.2.6-.9,1.1-1.5,1.1h-.5c-.6,0-.9-.5-.7-1.1l1.6-3.8c.2-.6.9-1.1,1.5-1.1h.5c.6,0,.9.5.7,1.1l-.5,1.3h-1.1l.5-1.1c0-.1,0-.2-.1-.2s-.2,0-.3.2l-1.5,3.5c0,.1,0,.2.1.2s.2,0,.3-.2l.6-1.3h1.1Z"/>
      <path class="st2" d="M187.6,66.7l.3-.7c0-.1,0-.2-.1-.2s-.2,0-.3.2l-.2.6c0,.2,0,.3,0,.3h0s.7.7.7.7c0,0,.3.3,0,.9l-.4,1c-.2.6-.9,1.1-1.5,1.1h-.5c-.6,0-.9-.5-.7-1.1l.4-1h1.1l-.4.9c0,.1,0,.2.1.2s.3,0,.3-.2l.3-.7s0-.2,0-.3l-.7-.8c-.3-.3,0-.8,0-.8l.4-1c.2-.6.9-1.1,1.5-1.1h.5c.6,0,.9.5.7,1.1l-.4.9h-1.2Z"/>
    </g>
  </g>
</svg>