<?xml version="1.0" encoding="UTF-8"?>
<svg id="Capa_1" xmlns="http://www.w3.org/2000/svg" version="1.1" viewBox="0 0 428.3 64.5">
  <!-- Generator: Adobe Illustrator 30.0.0, SVG Export Plug-In . SVG Version: 2.1.1 Build 123)  -->
  <defs>
    <style>
      .st0 {
        fill: #30302e;
      }
    </style>
  </defs>
  <g id="Capa_2">
    <g id="_05">
      <path class="st0" d="M109.8,17.4h-4.1c-1.3,0-1.9.6-1.9,2v3.6c-9.5-8.2-23.8-7.8-32.8,1-9.2,9.3-9.2,24.3,0,33.6,4.5,4.5,10.6,7,17,6.9,5.8,0,11.4-2.2,15.8-6v4c0,1.4.6,2,2,2h4c1.4,0,2-.6,2-2V19.4c0-1.4-.6-2-2-2M99.3,52c-6.3,6-16.3,6-22.6,0-3.1-2.9-4.8-7-4.6-11.3-.1-4.2,1.5-8.2,4.5-11.1h0c2.9-3.1,7-4.8,11.3-4.7,4.3,0,8.4,1.5,11.4,4.5,6.2,6.3,6.2,16.4,0,22.7"/>
      <path class="st0" d="M37.4,23c-3.9-3.9-9.2-6-14.7-5.9-6-.1-11.7,2.2-15.9,6.5-9.1,9.5-9,24.5,0,34,4.5,4.5,10.6,7,17,6.9,5.4,0,10.7-1.4,15.3-4.2,1.1-.6,1.5-1.1,1.5-1.7,0-.4,0-.7-.3-1l-1.5-3.2c-.1-.6-.7-1-1.3-1-.4-.1-.8,0-1.1.3-3.8,2-8,3-12.3,3-7.7.3-14.5-5.1-15.9-12.7h33.6c1.4,0,2-.6,2-1.9v-2.6c.2-6.2-2.1-12.1-6.5-16.5M8.6,37.3c.7-3.7,2.6-7,5.5-9.5,5.5-4.2,13.2-3.7,18.1,1.2,2.2,2.2,3.5,5.2,3.7,8.3H8.6Z"/>
      <path class="st0" d="M52,64.5c-1.4,0-2-.6-2-1.8V2c0-1.4.6-2,2-2h4c1.4,0,2,.6,2,2v60.5c0,1.4-.6,2-2,2h-4Z"/>
      <path class="st0" d="M165.3,11.3c-.8-.8-1.2-1.8-1.2-2.9,0-1.1.4-2.2,1.2-3,1.7-1.5,4.3-1.5,6,0,.8.8,1.3,1.9,1.3,3,0,1.1-.5,2.1-1.3,2.9-1.7,1.5-4.3,1.5-6,0"/>
      <path class="st0" d="M164.3,20.2c0-2.2,1.8-4,4-4s4,1.8,4,4v42.3c0,1.4-.6,2-1.9,2h-4.1c-1.4,0-2-.6-2-2V20"/>
      <path class="st0" d="M179.4,11.3c-.8-.8-1.3-1.8-1.3-2.9,0-1.1.5-2.2,1.3-3,1.7-1.5,4.3-1.5,6,0,.8.8,1.2,1.9,1.2,3,0,1.1-.4,2.2-1.2,2.9-1.7,1.5-4.3,1.5-6,0"/>
      <path class="st0" d="M178.4,20.2c0-2.2,1.8-4,4-4s4,1.8,4,4v42.3c0,1.4-.6,2-2,2h-4.1c-1.3,0-1.9-.6-1.9-2V20"/>
      <path class="st0" d="M158.3,35.5c0-10.6-8.5-19.2-19.1-19.3-4.9,0-9.7,1.9-13.3,5.3h0v-2.1c0-1.4-.6-2-2-2h-4.1c-1.3,0-1.9.6-1.9,2v43.1c0,1.4.6,2,1.9,2h4.1c1.4,0,2-.6,2-2v-26.1c0-6.7,5.4-12.2,12.1-12.3,0,0,.1,0,.2,0,6.8,0,12.3,5.6,12.3,12.4h0v26c0,1.4.6,2,2,2h3.9c1.3,0,1.9-.6,1.9-2v-27h0Z"/>
      <path class="st0" d="M232.9,35.6c0-10.6-8.5-19.2-19.1-19.3-4.9,0-9.7,1.9-13.3,5.3h0v-2.2c.1-1-.6-1.9-1.6-2-.1,0-.3,0-.4,0h-4.1c-1.3,0-1.9.6-1.9,2v43.1c0,1.4.6,2,1.9,2h4.1c1.4,0,2-.6,2-2v-25.9c0-6.7,5.4-12.2,12.1-12.3,0,0,0,0,.1,0,6.8,0,12.3,5.5,12.4,12.3h0v25.9c0,1.4.6,2,2,2h3.9c1.3,0,1.9-.6,1.9-2v-26.9Z"/>
      <path class="st0" d="M262.5,26.2h-4.5v-2.7h12.3v2.7h-4.5v11.5h-3.3v-11.5Z"/>
      <path class="st0" d="M293.1,35v2.7h-10.9v-14.2h10.7v2.7h-7.5v3h6.6v2.6h-6.6v3.3h7.7Z"/>
      <path class="st0" d="M304.9,30.6c0-4.3,3.3-7.3,7.7-7.3,2.2,0,4.3.8,5.8,2.5l-2.1,1.9c-.9-1.1-2.2-1.6-3.6-1.6-2.4-.1-4.4,1.7-4.5,4.1,0,.1,0,.3,0,.4,0,2.5,2.2,4.5,4.8,4.4,1.3,0,2.5-.6,3.3-1.6l2.1,2c-1.5,1.7-3.7,2.6-5.9,2.5-4.3,0-7.6-3-7.6-7.3Z"/>
      <path class="st0" d="M343.7,23.5v14.2h-3.3v-5.8h-6.4v5.8h-3.3v-14.2h3.3v5.6h6.4v-5.6h3.3Z"/>
      <path class="st0" d="M258,57.2c0-4.3,3.2-7.3,7.7-7.3,2.2,0,4.3.9,5.8,2.5l-2.1,1.9c-.9-1-2.2-1.6-3.6-1.6-2.4-.1-4.4,1.7-4.5,4.1,0,.1,0,.3,0,.4,0,2.4,1.9,4.4,4.3,4.5,0,0,.1,0,.2,0,1.4,0,2.7-.6,3.6-1.7l2.1,2c-1.5,1.7-3.7,2.6-5.9,2.5-4,.2-7.4-2.8-7.6-6.8,0-.2,0-.3,0-.5Z"/>
      <path class="st0" d="M282.6,57.2c0-4.2,3.3-7.3,7.7-7.3s7.8,3.1,7.8,7.3-3.3,7.3-7.8,7.3-7.7-3.1-7.7-7.3ZM294.8,57.2c0-2.5-2-4.5-4.5-4.5s-4.5,2-4.5,4.5,2,4.5,4.5,4.5h0c2.4.1,4.4-1.7,4.5-4.1,0-.1,0-.3,0-.4h0Z"/>
      <path class="st0" d="M323.5,64.2v-8.4l-4.2,7h-1.4l-4.2-6.9v8.4h-3.1v-14.2h2.7l5.3,8.8,5.3-8.8h2.6v14.2h-3.1.1Z"/>
      <path class="st0" d="M352.3,55.2c0,3.2-2.4,5.1-6.1,5.1h-2.9v3.9h-3.3v-14.1h6.2c3.7,0,6.1,2,6.1,5.1ZM349,55.2c0-1.5-1-2.4-3-2.4h-2.7v4.9h2.7c2,0,3-.9,3-2.5Z"/>
      <path class="st0" d="M373.3,61.2h-6.5l-1.3,3h-3.3l6.3-14.1h3.2l6.3,14.1h-3.4l-1.3-3ZM372.3,58.7l-2.2-5.4-2.3,5.4h4.5Z"/>
      <path class="st0" d="M402.6,50.1v14.1h-2.7l-7.1-8.5v8.5h-3.2v-14.1h2.7l7.1,8.6v-8.6h3.2Z"/>
      <path class="st0" d="M422.8,59.2v5h-3.2v-5l-5.5-9.1h3.5l3.7,6.3,3.8-6.3h3.2l-5.5,9.1Z"/>
    </g>
  </g>
</svg>