<?xml version="1.0" encoding="UTF-8"?>
<svg id="uuid-6eb7e471-832e-4c25-b8a2-5af815789cc2" xmlns="http://www.w3.org/2000/svg" version="1.1" viewBox="0 0 832.4 171.4">
  <!-- Generator: Adobe Illustrator 30.0.0, SVG Export Plug-In . SVG Version: 2.1.1 Build 123)  -->
  <defs>
    <style>
      .st0, .st1 {
        fill: #30302e;
      }

      .st1 {
        opacity: .5;
      }
    </style>
  </defs>
  <g id="uuid-21f8535d-f403-4ab8-b460-6a1821c1f583">
    <path class="st0" d="M301.1,46.3h-11c-3.8,0-5.5,1.6-5.5,5.3v9.4c-26.3-21.7-65.3-20.5-89.9,2.9-25.5,24.6-25.5,64.4,0,88.9,12.3,11.9,29.3,18.9,46.7,18.4,16.1,0,31.4-5.7,43.3-16v10.7c0,3.7,1.7,5.3,5.5,5.3h11c3.8,0,5.5-1.6,5.5-5.3V51.2c0-3.3-1.7-4.9-5.5-4.9ZM272.3,137.7c-8.1,7.8-19.5,12.3-31,11.9-11.5,0-22.9-4.1-31-12.3-8.5-7.8-13.1-18.4-12.7-29.9-.4-11.1,4.2-21.7,12.3-29.5,8.1-8.2,19.1-12.7,31-12.3,11.9-.4,22.9,4.1,31.4,11.9,17,16.8,17,43.9,0,60.3h0Z"/>
    <path class="st0" d="M102.6,61.1c-10.6-10.2-25.5-16-40.3-15.6-16.5-.4-32.2,5.7-43.7,17.2-25,25.4-24.6,65.2.4,90.2,12.3,11.9,29.3,18.9,46.7,18.4,14.8,0,29.3-3.7,42-11.1,3-1.6,4.2-2.9,4.2-4.5s-.4-2.1-.8-2.9l-4.2-8.2c-.4-1.6-2.1-2.9-3.8-2.9s-2.1.4-3,.8c-10.2,5.3-22.1,8.2-33.9,7.8-21.2.8-39.9-13.5-43.7-33.6h92.5c3.8,0,5.5-1.6,5.5-5.3v-7c.4-16-5.9-32-17.8-43.5h0ZM23.2,98.8c2.1-9.8,7.6-18.5,15.3-25,14.8-11.1,36.1-9.8,49.6,3.3,5.9,5.7,9.8,13.5,10.2,21.7H23.2Z"/>
    <path class="st0" d="M142.5,170.9c-3.8,0-5.5-1.6-5.5-4.9V5.3c0-3.7,1.7-5.3,5.5-5.3h11c3.8,0,5.5,1.6,5.5,5.3v160.7c0,3.7-1.7,5.3-5.5,5.3h-11v-.4Z"/>
    <path class="st0" d="M453.5,29.9c-2.1-2-3.4-4.9-3.4-7.8s1.3-5.7,3.4-7.8c4.7-4.1,11.9-4.1,16.5,0,2.1,2.1,3.4,4.9,3.4,7.8s-1.3,5.7-3.4,7.8c-4.7,4.1-11.9,4.1-16.5,0Z"/>
    <path class="st0" d="M450.9,53.7c0-5.7,5.1-10.7,11-10.7s11,4.9,11,10.7v112.3c0,3.7-1.7,5.3-5.5,5.3h-11c-3.8,0-5.5-1.6-5.5-5.3V52.9"/>
    <path class="st0" d="M492.1,29.9c-2.1-2-3.4-4.9-3.4-7.8s1.3-5.7,3.4-7.8c4.7-4.1,11.9-4.1,16.5,0,2.1,2.1,3.4,4.9,3.4,7.8s-1.3,5.7-3.4,7.8c-4.7,4.1-11.9,4.1-16.5,0h0Z"/>
    <path class="st0" d="M489.5,53.7c0-5.7,5.1-10.7,11-10.7s11,4.9,11,10.7v112.3c0,3.7-1.7,5.3-5.5,5.3h-11c-3.8,0-5.5-1.6-5.5-5.3V52.9"/>
    <path class="st0" d="M434.4,94.3c0-28.3-23.8-51.2-53-51.2s-26.7,5.3-36.1,13.9v-5.7c0-3.7-1.7-5.3-5.5-5.3h-11c-3.8,0-5.5,1.6-5.5,5.3v114.4c0,3.7,1.7,5.3,5.5,5.3h11c3.8,0,5.5-1.6,5.5-5.3v-68.9c0-18,15.3-32.8,33.9-32.8s33.9,14.8,33.9,32.8v68.9c0,3.7,1.7,5.3,5.5,5.3h10.6c3.8,0,5.5-1.6,5.5-5.3v-68.9c-.4-.8-.4-1.6-.4-2.5h0Z"/>
    <path class="st0" d="M638.9,94.7c0-28.3-23.8-51.2-53-51.2s-26.7,5.3-36.1,13.9v-5.7c0-3.7-1.7-5.3-5.5-5.3h-11c-3.8,0-5.5,1.6-5.5,5.3v114.4c0,3.7,1.7,5.3,5.5,5.3h11c3.8,0,5.5-1.6,5.5-5.3v-68.9c0-18,14.8-32.8,33.5-32.8s34,14.8,34,32.8v68.9c0,3.7,1.7,5.3,5.5,5.3h10.6c3.8,0,5.5-1.6,5.5-5.3v-71.3h0Z"/>
    <rect class="st1" x="696" y="34.9" width="136.5" height="136.5" rx="27.1" ry="27.1"/>
    <path class="st0" d="M719.7,133.8l23.4-61.3h11.6l23.2,61.3h-10.7l-6.1-15.8h-24.7l-6.1,15.8h-10.8,0ZM738.1,110h21.3l-10.7-28.1-10.7,28.1h0Z"/>
    <path class="st0" d="M790.5,133.8v-61.3h10.4v61.3h-10.4Z"/>
  </g>
</svg>