<?xml version="1.0" encoding="UTF-8"?>
<svg id="Capa_1" xmlns="http://www.w3.org/2000/svg" version="1.1" viewBox="0 0 2314.5 578.7">
  <!-- Generator: Adobe Illustrator 30.0.0, SVG Export Plug-In . SVG Version: 2.1.1 Build 123)  -->
  <defs>
    <style>
      .st0, .st1 {
        fill: #30302e;
      }

      .st1 {
        fill-rule: evenodd;
      }
    </style>
  </defs>
  <path class="st1" d="M744.6,293.9V86.5c0-29.3-29.4-54.8-58.7-54.8s-62.6,9.8-74.3,56.7c-11.7,47-25.4,86.1-29.4,95.9-1.9,4.9-.8,4.5-1.8,4.5s0,.4-1.8-4.5c-3.9-9.8-17.6-48.9-29.4-95.9s-45-56.7-74.3-56.7-58.7,25.4-58.7,54.8-1.2,112.5-1.2,112.5c27.7,35.1,42.8,78.5,42.7,123.2,0,110-89.2,199.2-199.2,199.2S59.3,432.3,59.3,322.3s89.2-199.2,199.2-199.2,99,19.8,134.4,52.2v-53c-39.7-26.8-86.5-41.1-134.4-41.1-133.1,0-241,107.9-241,241s107.9,241,241,241,241-107.9,241-241-.1-5.2-.2-7.8v-127.2s14.5,10.6,38.1,113c4.3,18.5,14.1,66.1,42.9,68.8,28.8-2.7,38.6-50.3,42.9-68.8,23.6-102.3,38.1-113,38.1-113v135c0,38.1,16.1,44,35.2,44h59.7s-11.7,0-11.7-72.4h0Z"/>
  <path class="st1" d="M258.5,143.8c-98.5,0-178.4,79.9-178.4,178.5s79.9,178.4,178.4,178.4,178.4-79.9,178.4-178.4-79.9-178.5-178.4-178.5h0ZM258.5,457.1h0c-74.5,0-134.9-60.4-134.9-134.9s16.1-73.1,41.9-97.6c9.2,10.5,40.3,39.6,92.4,28.7,0,0-17.6-7.3-17.6-22,0,0,44,30.8,92.4,2.9,0,0-48.3-22.2-48.8-44.4,62.3,11.9,109.4,66.7,109.4,132.4s-60.4,134.9-134.9,134.9h.1Z"/>
  <path class="st1" d="M203.7,294.8c9.2.4,16.9-6.8,17.3-15.9.4-9.2-6.8-16.9-15.9-17.3h-1.3c-9.2.4-16.3,8.1-15.9,17.2.3,8.7,7.3,15.6,15.9,15.9h-.1ZM309.3,294.8c9.2.4,16.9-6.8,17.3-15.9.4-9.2-6.8-16.9-15.9-17.3h-1.3c-9.2.4-16.3,8.1-15.9,17.2.3,8.7,7.3,15.6,15.9,15.9h-.1ZM193.4,320.1c18.3,5.2,85.8,29.3,129.1-14s22.7,8.1,11.7,16.2-29.3,25.7-75.6,25.7-63.8-13.2-70.4-16.1c-6.6-2.9-5.1-14.7,5.1-11.7h0Z"/>
  <g>
    <path class="st0" d="M240.4,310.9s5.1,11.4,15.4,11.4,12.5-11.4,12.5-11.4c-13.9,5.8-27.9,0-27.9,0Z"/>
    <path class="st0" d="M978.4,155h0c0-46-52.8-67.5-68.5-67.5h-80.2c-21.5,0-45,17.6-45,41.1s23.5,42.1,46,42.1,25.4-16.6,45-16.6,19.6,29.5,2,29.5c-55.8,0-103.9,40.1-103.9,85.9s48.1,99.8,103.9,99.8,101-40.1,101-99.8-.2-68.5-.2-114.4h0ZM874.7,290.2c-12.4,0-17.6-10.2-17.6-19.8s9.1-22.5,25.4-22.5,11.9,11.6,11.9,15.5c0,15.6-3.1,26.8-19.7,26.8h0Z"/>
  </g>
  <path class="st1" d="M2053,155c0-46-52.8-67.5-68.5-67.5h-80.2c-21.5,0-45,17.6-45,41.1s23.5,42.1,46,42.1,25.4-16.6,45-16.6,19.6,29.5,1.9,29.5c-55.8,0-103.9,40.1-103.9,85.9s48.1,99.8,103.9,99.8,101-40.1,101-99.8-.2-68.5-.2-114.4h0ZM1949.3,290.2c-12.4,0-17.6-10.2-17.6-19.8s9-22.5,25.4-22.5,11.9,11.6,11.9,15.5c0,15.6-3.1,26.8-19.7,26.8h0Z"/>
  <path class="st1" d="M1011.1,328.1c0,53.6,84.6,55.1,84.6,0v-164.3h15.7c43.6,0,56.7-79.2-7.8-79.2s-92.4,30.3-92.4,79.2v164.3h0Z"/>
  <g>
    <path class="st0" d="M1282.1,124.7v143.8c0,27.2-44.6,27.2-44.6,0V124.7c0-53.6-84.6-55.1-84.6,0v146.2c0,132,213.8,133.9,213.8,0V124.7c0-53.6-84.6-55.1-84.6,0h0Z"/>
    <path class="st0" d="M583.2,419.5c-22,0-40.6,16.9-40.6,39.8s18.6,40.1,40.6,40.1,40.3-16.9,40.3-40.1-18.6-39.8-40.3-39.8ZM583.2,492.7c-18.3,0-32.5-14.2-32.5-33.4s14.3-33.2,32.5-33.2,32.3,14.3,32.3,33.2-14.3,33.4-32.3,33.4Z"/>
    <path class="st0" d="M1768.3,92.4h-72.8v-36.2c0-55.1-84.6-53.6-84.6,0v171.6c0,64.6-59.3,68.1-74,68.1s-66.5-7.3-66.5-69,35.2-65,35.2-65c0,0-6.8,56.7,41.1,56.7s54.8-41.1,54.8-54.8c0-24.4-6.8-76.3-83.1-76.3s-132.1,82.7-132.1,139.4,50.8,143.3,150.6,143.3,158.6-74.9,158.6-142.4v-65h44.6v166.2c0,53.6,84.6,55.1,84.6,0v-174.9c0-31.3-29.9-61.6-56.4-61.6h0Z"/>
  </g>
  <path class="st1" d="M589.6,462.2c6.8-.9,11.9-4.4,11.9-12.7s-5.4-13.1-16.3-13.1h-17.5v46.1h7v-20h8l12.2,20h7.8l-13.1-20.3h0ZM583.1,456.6h-8.3v-14.3h9.5c4.9,0,10,1.1,10,6.8s-5.3,7.5-11.2,7.5h0Z"/>
  <path class="st1" d="M2166.1,86.1c-9.5-22.4-35.4-32.8-57.8-23.3-16.2,6.9-26.8,22.8-26.8,40.4v228.9c.6,24.3,20.8,43.5,45.1,42.9,23.5-.6,42.4-19.5,42.9-42.9v-154.5c8.2-18.3,42.8-15.4,42.8,8.5v143.8c0,53.6,84.6,55.1,84.6,0v-146.2c0-75.9-70.8-108.8-130.9-97.5h0Z"/>
</svg>