<?xml version="1.0" encoding="UTF-8"?>
<svg id="uuid-e816fd08-8939-4289-a726-6951d042ed29" xmlns="http://www.w3.org/2000/svg" version="1.1" viewBox="0 0 892.3 107">
  <!-- Generator: Adobe Illustrator 30.0.0, SVG Export Plug-In . SVG Version: 2.1.1 Build 123)  -->
  <defs>
    <style>
      .st0 {
        fill: #393837;
      }

      .st1 {
        fill: #30302e;
      }
    </style>
  </defs>
  <g id="uuid-530dc3ab-b4be-4c1d-9cc8-dd80d93b99bc">
    <path class="st1" d="M287.6,0c18.8,0,30.9,10.5,31.9,27.5h-13.5c-.7-9.8-7.6-15.5-18.6-15.5s-20.4,6.2-20.4,15.9,4.5,12.6,13.7,14.8l16.2,3.8c16,3.7,24.2,12.4,24.2,26.2s-13.7,28.9-34.6,28.9-33.3-10.5-34.1-27.3h13.6c.3,9.4,8.1,15.4,20.5,15.4s21.3-6.1,21.3-15.9-4.2-12.6-13.6-14.8l-16.2-3.7c-16-3.7-24.3-12.9-24.3-27S267.3,0,287.6,0h0Z"/>
    <path class="st1" d="M330.6,66.9c0-20.8,13.2-35.2,32.5-35.2s31.3,13,31.3,32.8v4.8h-51.4c1,14.1,8.3,21.9,20.9,21.9s16.4-4.1,18.6-11.7h12c-3.3,14.3-14.4,22.3-30.9,22.3s-33-14.1-33-34.8h0ZM343.3,60.8h38.3c0-11-7.2-18.3-18.5-18.3s-18.2,6.7-19.8,18.3Z"/>
    <path class="st1" d="M408,100V33.6h11.5l1.4,10.2c4.2-7.6,12.6-12.1,22-12.1,17.5,0,25.5,10.7,25.5,27.7v40.6h-12.8v-37.8c0-13.5-6.2-18.9-16-18.9s-18.9,8.6-18.9,21.5v35.2h-12.8Z"/>
    <path class="st1" d="M491.4,80.7c0,6.8,5.2,10.9,13.6,10.9s14.1-3.7,14.1-9.8-2.2-7.2-9.1-9l-11.7-2.7c-11.8-2.8-17.4-8.7-17.4-18.5s10.3-20,25-20,24,8.2,24.3,20.8h-12.2c-.3-6.7-4.8-10.9-12.5-10.9s-12.5,3.5-12.5,9.6,3.3,7.5,9.8,9.1l11.7,2.8c11.3,2.7,16.8,7.9,16.8,17.8s-10.9,20.7-26.6,20.7-25.5-8.3-25.5-20.9c0,0,12.2,0,12.2,0Z"/>
    <path class="st1" d="M540.5,66.9c0-20.8,13.2-35.2,32.5-35.2s31.3,13,31.3,32.8v4.8h-51.4c1,14.1,8.3,21.9,20.9,21.9s16.4-4.1,18.6-11.7h12c-3.3,14.3-14.4,22.3-30.8,22.3s-33-14.1-33-34.8h0ZM553.1,60.8h38.3c0-11-7.2-18.3-18.5-18.3s-18.2,6.7-19.8,18.3Z"/>
    <path class="st1" d="M633.3,58.3v41.7h-13.3V1.8h59.2v12.2h-45.9v32.2h38.6v12.1h-38.6Z"/>
    <path class="st1" d="M692.8,100V0h12.8v100h-12.8Z"/>
    <path class="st1" d="M754,31.8c19.8,0,34.5,14.4,34.5,34.9s-14.7,34.9-34.5,34.9-34.7-14.4-34.7-34.9,14.7-34.9,34.7-34.9ZM754,90.2c12.8,0,21.7-9.7,21.7-23.5s-9-23.5-21.7-23.5-21.7,9.7-21.7,23.5,8.8,23.5,21.7,23.5Z"/>
    <path class="st1" d="M791.5,33.6h13.2l11,34.5c1.5,4.9,2.8,9.9,4.1,15.8,1.1-5.8,2.8-11.4,4.3-15.8l11.1-34.5h13l11,34.5c1.1,3.3,3.3,11,4.3,15.8,1.1-5.3,2.3-9.9,4.2-15.8l11.1-34.5h13.3l-22.7,66.4h-12.1l-11.5-35.6c-2.2-6.7-3.5-11.8-4.2-15.5-.7,3.3-1.9,7.6-4.3,15.6l-11.5,35.5h-12.6l-21.7-66.4h0Z"/>
    <path class="st1" d="M103.3,107c-22.7,0-33.3-3.8-46.1-11.9-10.2-6.4-17.8-14.7-24.6-21.9l-.8-.9c-5.5-5.9-8.8-10-15.8-13-3.2-1.3-8.9-2.6-16.1-2.6V9.8c10.7,0,25.4,0,39.3,7.7,11,6.1,19,14.3,27,22.9l.8.9c5.5,5.5,10.7,10.7,15.2,14,.8.6,7.8,6.1,21,5.2v46.6h0Z"/>
    <path class="st0" d="M192.1,98c-22.7,0-33.3-3.8-46.1-11.9-10.2-6.4-17.8-14.7-24.6-22l-.8-.9c-5.5-5.9-8.8-10-15.8-13-3.2-1.3-8.8-2.6-16.1-2.6V.8c10.7,0,25.4,0,39.3,7.7,11,6.1,19,14.3,26.9,22.9l.8.9c5.5,5.5,10.7,10.7,15.2,14,.8.6,7.8,6.1,21.1,5.2v46.6h0Z"/>
  </g>
</svg>