<?xml version="1.0" encoding="UTF-8"?><svg id="uuid-e816fd08-8939-4289-a726-6951d042ed29" xmlns="http://www.w3.org/2000/svg" viewBox="0 0 892.29 107.03"><defs><style>.uuid-6e4c6638-c626-42f0-9cbc-a14b0c30b1fa{fill:#ff9b57;}.uuid-1fd4f5ec-c29f-40ec-b62f-7987073ed7a9{fill:#232323;}.uuid-217fed52-6de3-4ef2-90f0-74b2281c2782{fill:#ff692f;}</style></defs><g id="uuid-530dc3ab-b4be-4c1d-9cc8-dd80d93b99bc"><path class="uuid-1fd4f5ec-c29f-40ec-b62f-7987073ed7a9" d="M287.56,0c18.75,0,30.85,10.46,31.94,27.45h-13.45c-.68-9.78-7.61-15.49-18.62-15.49-12.37,0-20.38,6.25-20.38,15.9,0,7.88,4.48,12.64,13.73,14.81l16.17,3.81c16.04,3.67,24.19,12.37,24.19,26.23,0,17.67-13.73,28.95-34.65,28.95s-33.29-10.46-34.11-27.32h13.59c.27,9.38,8.15,15.36,20.52,15.36,13.05,0,21.34-6.12,21.34-15.9,0-7.75-4.21-12.64-13.59-14.81l-16.17-3.67c-16.04-3.67-24.33-12.91-24.33-27.04,0-16.85,13.59-28.27,33.84-28.27Z"/><path class="uuid-1fd4f5ec-c29f-40ec-b62f-7987073ed7a9" d="M330.64,66.86c0-20.79,13.18-35.2,32.48-35.2s31.26,13.05,31.26,32.75v4.76l-51.37.14c.95,14,8.29,21.74,20.93,21.74,9.92,0,16.44-4.08,18.62-11.69h11.96c-3.26,14.27-14.4,22.29-30.85,22.29-19.57,0-33.02-14.13-33.02-34.79ZM343.28,60.75h38.32c0-11.01-7.2-18.35-18.48-18.35s-18.21,6.66-19.84,18.35Z"/><path class="uuid-1fd4f5ec-c29f-40ec-b62f-7987073ed7a9" d="M407.96,100.02V33.57h11.55l1.36,10.19c4.21-7.61,12.64-12.1,22.02-12.1,17.53,0,25.55,10.74,25.55,27.72v40.63h-12.77v-37.78c0-13.45-6.25-18.89-16.04-18.89-11.96,0-18.89,8.56-18.89,21.47v35.2h-12.77Z"/><path class="uuid-1fd4f5ec-c29f-40ec-b62f-7987073ed7a9" d="M491.4,80.72c0,6.79,5.16,10.87,13.59,10.87,8.97,0,14.13-3.67,14.13-9.78,0-4.48-2.17-7.2-9.11-8.97l-11.69-2.72c-11.82-2.85-17.39-8.7-17.39-18.48,0-12.23,10.33-19.98,25.01-19.98s24.05,8.15,24.33,20.79h-12.23c-.27-6.66-4.76-10.87-12.5-10.87s-12.5,3.53-12.5,9.65c0,4.48,3.26,7.47,9.78,9.11l11.69,2.85c11.28,2.72,16.85,7.88,16.85,17.8,0,12.64-10.87,20.66-26.64,20.66s-25.55-8.29-25.55-20.93h12.23Z"/><path class="uuid-1fd4f5ec-c29f-40ec-b62f-7987073ed7a9" d="M540.46,66.86c0-20.79,13.18-35.2,32.48-35.2s31.26,13.05,31.26,32.75v4.76l-51.37.14c.95,14,8.29,21.74,20.93,21.74,9.92,0,16.44-4.08,18.62-11.69h11.96c-3.26,14.27-14.41,22.29-30.85,22.29-19.57,0-33.02-14.13-33.02-34.79ZM553.1,60.75h38.32c0-11.01-7.2-18.35-18.48-18.35s-18.21,6.66-19.84,18.35Z"/><path class="uuid-1fd4f5ec-c29f-40ec-b62f-7987073ed7a9" d="M633.28,58.3v41.72h-13.32V1.77h59.25v12.23h-45.93v32.21h38.59v12.09h-38.59Z"/><path class="uuid-1fd4f5ec-c29f-40ec-b62f-7987073ed7a9" d="M692.8,100.02V0h12.77v100.02h-12.77Z"/><path class="uuid-1fd4f5ec-c29f-40ec-b62f-7987073ed7a9" d="M753.95,31.8c19.84,0,34.52,14.41,34.52,34.93s-14.68,34.93-34.52,34.93-34.65-14.4-34.65-34.93,14.68-34.93,34.65-34.93ZM753.95,90.24c12.77,0,21.74-9.65,21.74-23.51s-8.97-23.51-21.74-23.51-21.74,9.65-21.74,23.51,8.83,23.51,21.74,23.51Z"/><path class="uuid-1fd4f5ec-c29f-40ec-b62f-7987073ed7a9" d="M791.46,33.57h13.18l11.01,34.52c1.5,4.89,2.85,9.92,4.08,15.76,1.09-5.84,2.85-11.42,4.35-15.76l11.14-34.52h13.05l11.01,34.52c1.09,3.26,3.26,11.01,4.35,15.76,1.09-5.3,2.31-9.92,4.21-15.76l11.14-34.52h13.32l-22.69,66.45h-12.1l-11.55-35.6c-2.17-6.66-3.53-11.82-4.21-15.49-.68,3.26-1.9,7.61-4.35,15.63l-11.55,35.47h-12.64l-21.74-66.45Z"/><path class="uuid-217fed52-6de3-4ef2-90f0-74b2281c2782" d="M103.29,107.03c-22.67,0-33.3-3.85-46.08-11.92-10.19-6.43-17.82-14.67-24.56-21.95l-.81-.87c-5.48-5.91-8.8-10.02-15.77-13.01-3.16-1.35-8.85-2.61-16.06-2.61V9.8c10.71,0,25.37,0,39.26,7.74,10.97,6.11,19.01,14.31,26.95,22.87l.83.89c5.52,5.45,10.72,10.65,15.21,13.96.81.59,7.8,6.14,21.05,5.2v46.56Z"/><path class="uuid-6e4c6638-c626-42f0-9cbc-a14b0c30b1fa" d="M192.15,98.04c-22.67,0-33.3-3.85-46.08-11.92-10.19-6.43-17.82-14.67-24.56-21.95l-.81-.87c-5.48-5.91-8.8-10.02-15.77-13.01-3.16-1.35-8.85-2.61-16.06-2.61V.82c10.71,0,25.37,0,39.26,7.74,10.97,6.11,19.01,14.31,26.95,22.87l.83.89c5.52,5.45,10.72,10.65,15.21,13.96.81.59,7.8,6.14,21.05,5.2v46.56Z"/></g></svg>