<?xml version="1.0" encoding="UTF-8"?>
<svg id="Capa_1" xmlns="http://www.w3.org/2000/svg" version="1.1" viewBox="0 0 190 32">
  <!-- Generator: Adobe Illustrator 30.0.0, SVG Export Plug-In . SVG Version: 2.1.1 Build 123)  -->
  <defs>
    <style>
      .st0, .st1 {
        fill: #30302e;
      }

      .st1 {
        opacity: .8;
      }
    </style>
  </defs>
  <path class="st1" d="M27.8,15.9H7.2c-.7,0-1.4-.2-2.1-.6-.6-.4-1.1-1-1.3-1.6L.3,4.9c-.3-.6-.3-1.2-.3-1.7s.3-1.1.6-1.6c.3-.5.8-.9,1.3-1.1.6-.4,1.2-.5,1.8-.5h20.5c.7,0,1.4.2,2.1.6.6.4,1.1,1,1.3,1.6l3.6,8.8c.2.5.3,1.1.2,1.7,0,.6-.3,1.1-.6,1.6-.3.5-.8.9-1.3,1.1-.5.3-1.1.4-1.7.4h0Z"/>
  <path class="st1" d="M29.4,32H8.9c-.7,0-1.4-.2-2.1-.6-.6-.4-1.1-1-1.3-1.6l-3.6-8.8c-.2-.5-.3-1.1-.2-1.7,0-.6.3-1.1.6-1.6.3-.5.8-.9,1.3-1.1.5-.3,1.1-.4,1.7-.4h20.6c.7,0,1.4.2,2.1.6.6.4,1.1,1,1.3,1.6l3.6,8.8c.2.5.3,1.1.2,1.7,0,.6-.3,1.1-.6,1.6s-.8.9-1.3,1.1c-.5.3-1.1.4-1.7.4h-.1Z"/>
  <path class="st0" d="M26.2,10.7c-.3-.7-.7-1.2-1.3-1.6-.6-.4-1.3-.6-2.1-.6H7c-1.2,0-5.1-.2-5.8-1.4l2.5,6.1v.2l1.1,2.7,2.5,6.2h0c.3.6.7,1.2,1.3,1.6.6.4,1.3.6,2,.6h15.4s5.3,0,6.2,1.4l-6.1-15.1h.1Z"/>
  <path class="st0" d="M55.1,10c-.8-.4-1.6-.8-2.4-1.1-.7-.3-1.5-.4-2.3-.4s-1.5.1-2.1.5-.5.4-.6.7-.2.6-.2.9,0,.5.2.7c0,.2.2.4.4.6.4.4,1,.8,1.5,1,.6.3,1.3.6,1.9.8.6.2,1.2.5,1.8.8s1.1.7,1.6,1.1c.5.5.9,1.1,1.1,1.7.3.8.5,1.6.4,2.5,0,1-.3,2-.8,2.9-.6.9-1.4,1.7-2.4,2.2s-2.6.9-3.9.8c-.8,0-1.6,0-2.4-.2-1.7-.3-3.3-1-4.7-2l1.8-3.1c.5.4,1,.7,1.6.9.6.3,1.2.5,1.8.6.5.1,1.1.2,1.6.2s1,0,1.5-.2c.5-.1.9-.4,1.3-.7.2-.2.3-.4.4-.6,0-.2,0-.5,0-.7,0-.4,0-.8-.4-1.1-.3-.4-.7-.7-1.1-.9-.5-.3-1-.5-1.5-.7-.6-.2-1.3-.5-2-.8s-1.3-.7-1.9-1.2c-.6-.5-1.1-1-1.5-1.7-.4-.8-.6-1.6-.6-2.5s.3-2.2.8-3.1c.6-.9,1.4-1.6,2.3-2.1,1.1-.5,2.2-.8,3.4-.8s2.8.2,4.1.6c1,.4,1.9.8,2.8,1.4l-1.6,3.1h0Z"/>
  <path class="st0" d="M62.8,13.4l.3,2.1v-.2c.4-.8,1-1.4,1.8-1.9s1.7-.7,2.7-.7,1.2,0,1.8.3c.5.2.9.5,1.3.8.4.4.6.9.7,1.4h0c.5-.7,1.2-1.3,1.9-1.8.7-.4,1.5-.7,2.4-.7s2.1.3,3,1c.4.3.7.7.8,1.2.2.5.3.9.3,1.4v9.1h-4v-7.5c0-.5,0-.9-.3-1.3-.2-.3-.5-.5-1.1-.6-.3,0-.6,0-.9.2-.3.1-.5.3-.8.5-.5.5-.8,1-1,1.7s-.3,1.4-.3,2.1v5h-4v-7.5c0-.5,0-.9-.3-1.3,0-.2-.3-.3-.5-.4s-.4-.1-.6-.1c-.3,0-.6,0-.9.2-.3.1-.5.3-.7.5-.5.5-.8,1-1,1.7s-.3,1.4-.3,2.1v5h-4v-12.1h3.6l.2-.2Z"/>
  <path class="st0" d="M88.3,25.9c-1.1,0-2.2-.2-3.2-.7-.9-.5-1.7-1.2-2.2-2.1-.6-1.1-.9-2.4-.8-3.6,0-1.2.3-2.5.9-3.6.5-1,1.3-1.7,2.3-2.3.9-.5,1.9-.8,3-.8s2.2.2,2.8.6c.6.4,1.1.8,1.6,1.3l-.2.5.4-1.8h3.7v12.1h-4v-2.6l.3.8s-.2.1-.4.3c-.3.3-.5.5-.8.7-.4.3-.9.6-1.4.8-.6.2-1.3.3-1.9.3h-.1ZM89.4,22.7c.4,0,.9,0,1.3-.2.4-.1.7-.3,1-.6.3-.3.6-.6.7-1v-3c0-.4-.4-.7-.7-1-.3-.3-.7-.5-1.1-.7-.4-.2-.9-.2-1.4-.2s-1.1,0-1.6.4c-.5.3-.9.7-1.2,1.2-.3.5-.4,1.1-.4,1.7s.2,1.2.5,1.7.7.9,1.2,1.2c.5.3,1,.5,1.6.5h0Z"/>
  <path class="st0" d="M103.4,13.4l.4,3.3v-.5c.3-.7.8-1.3,1.4-1.8s1.2-.9,1.9-1.2c.4-.2.9-.4,1.4-.4l-.2,3.9c-.8-.1-1.7,0-2.4.4-.7.4-1.2.9-1.5,1.6-.4.6-.5,1.3-.5,2.1v4.7h-4v-12.1h3.6-.1Z"/>
  <path class="st0" d="M112,8.1h4v5.3h3v3h-3v9.2h-4v-9.2h-1.9v-3h1.9v-5.3Z"/>
  <path class="st0" d="M128.3,5.1c1.5,0,3,.2,4.4.8,1.1.5,2.1,1.3,2.7,2.4.7,1.1,1,2.4,1,3.7s-.1,1.7-.4,2.5c-.3.8-.7,1.6-1.2,2.3-.6.7-1.4,1.3-2.3,1.7-1.1.4-2.3.7-3.5.6h-3v6.5h-4.1V5.1h6.4ZM129,15.1c.5,0,1.1,0,1.6-.3.4-.2.7-.5,1-.8.2-.3.4-.6.5-1,0-.3.1-.6.2-.9v-.8c0-.4-.2-.7-.4-1-.2-.4-.6-.7-1-.9-.5-.3-1.1-.4-1.7-.3h-3v6.1h2.9-.1Z"/>
  <path class="st0" d="M143.1,25.6l-6.1-12.2h4.5l4.7,10.2-3.1,1.9h0ZM139.7,31.4l8.3-18h3.6l-8,18h-3.9Z"/>
  <path class="st0" d="M156.9,13.4l.3,2.1v-.2c.4-.8,1-1.4,1.8-1.9s1.7-.7,2.7-.7,1.2,0,1.8.3c.5.2,1,.5,1.3.8.4.4.6.9.7,1.4h-.1c.5-.7,1.2-1.3,1.9-1.8.7-.4,1.5-.7,2.4-.7s2.1.3,3,1c.4.3.7.7.8,1.2.2.5.3.9.3,1.4v9.1h-4v-7.5c0-.5,0-.9-.3-1.3-.2-.3-.5-.5-1.1-.6-.3,0-.6,0-.9.2s-.5.3-.8.5c-.5.5-.8,1-1,1.7s-.3,1.4-.3,2.1v5h-4v-7.5c0-.5,0-.9-.3-1.3-.1-.2-.3-.3-.5-.4s-.4-.1-.6-.1c-.3,0-.6,0-.9.2-.3.1-.5.3-.7.5-.4.5-.8,1-1,1.7s-.3,1.4-.3,2.1v5h-4v-12.1h3.6l.2-.2Z"/>
  <path class="st0" d="M183.3,25.9c-1.3,0-2.7-.2-3.9-.8s-1.9-1.3-2.4-2.3c-.6-1-.9-2.2-.8-3.4,0-1.2.3-2.3,1-3.3.6-1,1.5-1.8,2.6-2.3,1.1-.6,2.4-.9,3.6-.9s3.2.5,4.4,1.5,1.9,2.5,2.2,4.4l-9.7,3-.9-2.1,7-2.3-.8.4c-.2-.5-.4-.9-.8-1.3-.5-.4-1.1-.6-1.7-.6s-1.1.1-1.6.4-.8.7-1,1.1c-.2.5-.4,1.1-.4,1.7s.1,1.3.4,1.9c.3.5.7.9,1.2,1.2.5.3,1.1.4,1.7.4s.9,0,1.3-.2c.4-.2.8-.3,1.2-.6l1.8,2.9c-.7.4-1.4.7-2.2.9-.7.2-1.5.3-2.2.4h0Z"/>
</svg>