<?xml version="1.0" encoding="UTF-8"?>
<svg id="Capa_1" xmlns="http://www.w3.org/2000/svg" version="1.1" viewBox="0 0 298 56">
  <!-- Generator: Adobe Illustrator 30.0.0, SVG Export Plug-In . SVG Version: 2.1.1 Build 123)  -->
  <defs>
    <style>
      .st0 {
        fill: #30302e;
      }
    </style>
  </defs>
  <path class="st0" d="M79.8,11.8l8.1,25.4h.3l8.1-25.4h7.8l-11.5,33.5h-9.1l-11.5-33.5s7.8,0,7.8,0Z"/>
  <path class="st0" d="M108.2,45.3V11.8h22.5v5.8h-15.5v8h14.3v5.8h-14.3v8h15.5v5.8h-22.5Z"/>
  <path class="st0" d="M136.3,45.3V11.8h13.2c2.5,0,4.7.4,6.5,1.3,1.8.9,3.2,2.2,4.1,3.8.9,1.6,1.4,3.6,1.4,5.8s-.5,4.1-1.4,5.7c-1,1.6-2.3,2.8-4.2,3.7s-4,1.3-6.6,1.3h-8.8v-5.7h7.7c1.3,0,2.5-.2,3.4-.6s1.6-.9,2-1.7c.4-.7.7-1.7.7-2.8s-.2-2-.7-2.8c-.4-.8-1.1-1.3-2-1.7-.9-.4-2-.6-3.4-.6h-4.8v27.7h-7.1,0ZM154.4,30l8.3,15.2h-7.8l-8.1-15.2h7.6Z"/>
  <path class="st0" d="M165.2,17.6v-5.8h27.5v5.8h-10.2v27.6h-7v-27.6h-10.3Z"/>
  <path class="st0" d="M204.3,11.8v33.4h-7.1V11.8h7.1Z"/>
  <path class="st0" d="M229.3,45.3v-9.5l-3.5-4.2-9.2,13.7h-8.5l12.6-18.5-12.4-15h8.5l12,14.7h.4v-14.7h7.1v33.4h-7Z"/>
  <path class="st0" d="M247.6,45.3h-7.6l11.5-33.4h9.1l11.5,33.4h-7.6l-8.4-25.8h-.1l-8.4,25.8ZM247.1,32.1h17.9v5.5h-17.9v-5.5Z"/>
  <path class="st0" d="M276.2,45.3V11.8h7.1v27.6h14.3v5.8h-21.4Z"/>
  <path class="st0" d="M16.4,17.6c0,2.4.4,4.7,1.2,6.9.2.5.8.5,1.1.1l4.7-8.1c.3-.5.9-.9,1.5-.9h9.9c9.7-.2,16.8,4,21,10.6,1.4,2.2,2.2,4.5,2.7,6.9,0,.5.8.6,1.1.2l.7-1.2c1.6-2.7,1.6-6,0-8.7L49.1,3.9c-1.4-2.4-3.9-3.9-6.7-3.9h-14.4c-.9,0-2.3.4-3.1,1-5.2,3.7-8.5,9.7-8.5,16.6Z"/>
  <path class="st0" d="M46.6,20.3c-2.1-1.2-4.3-2-6.5-2.4-.5-.1-.9.4-.6.9l4.7,8.1c.3.5.3,1.2,0,1.8l-4.9,8.6c-4.6,8.5-11.8,12.6-19.7,12.9-2.6,0-5-.3-7.3-1-.5-.2-1,.4-.7.9l.7,1.2c1.6,2.7,4.4,4.3,7.5,4.3h22.5c2.7,0,5.3-1.5,6.6-3.8l7.2-12.5c.5-.8.8-2.3.7-3.2-.7-6.5-4.3-12.4-10.2-15.8Z"/>
  <path class="st0" d="M29.4,45.3c2.1-1.2,3.9-2.7,5.3-4.5.3-.4,0-1-.5-1h-9.3c-.6,0-1.2-.2-1.5-.8l-5-8.5c-5-8.2-5-16.5-1.5-23.5,1.2-2.3,2.8-4.2,4.5-5.8.4-.4.1-1-.4-1h-1.4c-3.1,0-5.9,1.7-7.5,4.4L1,24c-1.4,2.4-1.3,5.3,0,7.7l7.3,12.7c.5.8,1.6,1.8,2.5,2.2,5.8,2.5,12.7,2.1,18.6-1.3Z"/>
</svg>