<svg width="216" height="73" viewBox="0 0 216 73" fill="none" xmlns="http://www.w3.org/2000/svg">
<g clip-path="url(#clip0_2101_30)">
<path d="M212.408 57.6584C210.821 57.6584 209.607 56.407 209.607 54.8775C209.607 53.3479 210.867 52.0502 212.455 52.0502C214.042 52.0502 215.256 53.3016 215.256 54.8311C215.256 56.3606 213.996 57.6584 212.408 57.6584ZM212.408 52.3746C210.961 52.3746 209.887 53.487 209.887 54.8775C209.887 56.2679 210.961 57.3803 212.361 57.3803C213.809 57.3803 214.883 56.2679 214.883 54.8775C214.883 53.487 213.856 52.3746 212.408 52.3746ZM213.109 55.2019L213.856 56.2679H213.062L212.408 55.2946H211.895V56.2679H211.241V53.3016H212.595C213.295 53.3016 213.762 53.6724 213.762 54.2749C213.762 54.7848 213.529 55.0629 213.109 55.2019ZM212.548 53.8578H211.895V54.7384H212.548C212.875 54.7384 213.062 54.553 213.062 54.3213C213.109 54.0432 212.875 53.8578 212.548 53.8578Z" fill="#021727"/>
<path d="M2.61483 44.4026L0 51.1696H14.6617L12.0936 57.9366H67.1451L69.7599 51.1696H14.8485L15.9224 48.435H71.0206L71.5342 47.1372L16.3894 47.2762L17.4633 44.4026H2.61483Z" fill="#021727"/>
<path d="M75.1763 37.6356H20.2649L22.8797 30.8687H8.03121L5.41638 37.6356H20.0781L18.9575 40.5556H4.06227L3.59534 41.7144L18.5372 41.668L17.4633 44.4026H72.5614L75.1763 37.6356Z" fill="#021727"/>
<path d="M84.0947 52.4209H79.8456L77.6977 57.9828H68.8259L70.7871 52.9771L76.7171 37.5428H85.5889H95.2077C100.391 37.5428 104.827 37.7746 101.932 45.2368C100.204 49.5936 97.449 51.3549 93.7135 51.8184L97.1688 57.8902H86.8496L84.0947 52.4209ZM82.1335 46.4419H90.9119C93.1999 46.4419 93.7135 46.3955 94.1804 45.2368C94.6474 44.0781 94.1804 43.9854 91.8925 43.9854H83.1141L82.1335 46.4419Z" fill="#021727"/>
<path d="M119.021 58.4C115.753 58.4 111.597 58.4 108.375 58.4C103.192 58.4 99.7369 55.0165 102.539 47.7397C105.34 40.5092 111.504 37.1257 116.64 37.1257C119.908 37.1257 124.064 37.1257 127.286 37.1257C132.469 37.1257 135.784 40.5092 132.983 47.7397C130.134 55.0165 124.158 58.4 119.021 58.4ZM119.675 52.2356C121.963 52.2356 123.877 51.4476 125.278 47.786C126.679 44.1708 125.465 43.3365 123.13 43.3365C120.609 43.3365 118.508 43.3365 115.986 43.3365C113.698 43.3365 111.69 44.1708 110.243 47.786C108.795 51.4476 109.869 52.2356 112.484 52.2356C114.725 52.2356 117.154 52.2356 119.675 52.2356Z" fill="#021727"/>
<path d="M127.846 57.9365L146.29 37.5428H157.497L160.065 57.9365H150.82L150.446 55.0165H139.707L137.045 57.9365H127.846ZM144.609 49.1765H150.213L149.792 43.1048L144.609 49.1765Z" fill="#021727"/>
<path d="M196.812 57.9365H161.092L169.03 37.5428H204.75C209.933 37.5428 213.856 40.5092 211.054 47.7397C208.206 55.0165 201.949 57.9365 196.812 57.9365ZM203.023 47.7397C203.957 45.3295 203.443 44.0317 201.155 44.0317H175.38L172.485 51.494H198.26C200.548 51.494 202.042 50.1962 203.023 47.7397Z" fill="#021727"/>
<path d="M81.0131 13.9974H89.8848L81.9469 34.3911H73.0752L81.0131 13.9974Z" fill="#021727"/>
<path d="M91.8458 13.9974C100.344 13.9974 108.842 13.9974 117.387 13.9974L115.052 20.0228C113.278 20.0228 103.052 20.0228 98.3829 20.0228L97.6825 21.8305C102.772 21.8305 107.862 21.8305 112.951 21.8305L111.083 26.6044H95.8148L95.1144 28.3657H111.784L109.449 34.3911C100.904 34.3911 92.4062 34.3911 83.908 34.3911L91.8458 13.9974Z" fill="#021727"/>
<path d="M143.816 27.8559C141.621 33.4641 137.372 34.8546 132.609 34.8546H119.348C113.138 34.8546 111.644 32.4445 113.698 27.207H122.15C121.776 28.3657 123.037 28.3657 124.064 28.3657C127.286 28.3657 132.936 28.4121 134.43 28.4121C135.224 28.4121 135.691 28.0876 136.018 27.2533C136.251 26.6971 135.971 26.4654 135.131 26.4654C130.975 26.3727 126.726 26.2337 122.617 26.141C117.34 26.141 114.586 25.0749 116.313 20.5791C118.508 14.9708 122.757 13.5803 127.52 13.5803H140.314C146.477 13.5803 147.971 15.9905 145.964 21.2279H137.512C137.886 20.0692 136.672 20.0229 135.598 20.0229C132.376 20.0229 127.239 20.0229 125.699 20.0229C124.905 20.0229 124.485 20.301 124.158 21.1816C123.924 21.7378 124.158 21.9232 124.998 21.9232C129.154 22.0159 133.403 22.1549 137.559 22.2476C142.788 22.2476 145.543 23.36 143.816 27.8559Z" fill="#021727"/>
<path d="M150.586 13.9974C159.084 13.9974 167.583 13.9974 176.127 13.9974L173.793 20.0228C172.018 20.0228 161.793 20.0228 157.123 20.0228L156.423 21.8305C161.512 21.8305 166.602 21.8305 171.692 21.8305L169.824 26.6044H154.555L153.855 28.3657H170.524L168.19 34.3911C159.645 34.3911 151.147 34.3911 142.648 34.3911L150.586 13.9974Z" fill="#021727"/>
<path d="M192.517 34.3911H169.917L182.991 0H191.863L181.357 27.8095H195.085L192.517 34.3911Z" fill="#021727"/>
<path d="M61.1216 34.3911H25.3545L33.2924 13.9974H69.0128C74.1958 13.9974 78.118 16.9638 75.3164 24.1943C72.5148 31.4711 66.2579 34.3911 61.1216 34.3911ZM67.3318 24.1943C68.2657 21.7841 67.7521 20.4863 65.4641 20.4863H39.6894L36.7944 27.9485H62.5691C64.8571 27.9022 66.3513 26.6044 67.3318 24.1943Z" fill="#021727"/>
<path d="M27.2221 69.153C26.3817 71.2387 24.7941 71.7949 23.0197 71.7949H18.0703C15.7356 71.7949 15.1753 70.9143 15.9224 68.9212H19.0975C18.9574 69.3384 19.4244 69.3384 19.8446 69.3384C21.0586 69.3384 23.1598 69.3384 23.7201 69.3384C24.047 69.3384 24.1871 69.1993 24.3272 68.9212C24.4205 68.7359 24.3272 68.6432 24.0003 68.6432C22.4594 68.5968 20.8252 68.5505 19.2843 68.5041C17.2765 68.5041 16.2492 68.087 16.9029 66.4184C17.7434 64.3327 19.331 63.7765 21.1053 63.7765H25.9147C28.2494 63.7765 28.8097 64.6571 28.0159 66.6501H24.8408C24.9809 66.233 24.5139 66.1866 24.1404 66.1866C22.9264 66.1866 21.0119 66.1866 20.4516 66.1866C20.1248 66.1866 19.9847 66.2793 19.8446 66.6038C19.7512 66.7892 19.8446 66.8819 20.1715 66.8819C21.7123 66.9282 23.3466 66.9746 24.8875 67.0209C26.8486 67.0209 27.8759 67.4381 27.2221 69.153Z" fill="#021727"/>
<path d="M30.3506 63.9155C33.5257 63.9155 36.7475 63.9155 39.9227 63.9155L39.0355 66.1866C38.3818 66.1866 34.553 66.1866 32.7786 66.1866L32.4985 66.8819C34.4129 66.8819 36.3273 66.8819 38.2417 66.8819L37.5413 68.6895H31.7981L31.5179 69.3384H37.8215L36.9343 71.6095C33.7592 71.6095 30.5373 71.6095 27.3622 71.6095L30.3506 63.9155Z" fill="#021727"/>
<path d="M43.8918 69.5238H42.3042L41.5104 71.6095H38.1952L38.9423 69.7092L41.1836 63.9155H44.4988H48.0942C50.0553 63.9155 51.6896 64.0082 50.6156 66.7892C49.9619 68.4114 48.9347 69.1066 47.5339 69.2457L48.8413 71.5168H44.9657L43.8918 69.5238ZM43.1914 67.2527H46.5066C47.3471 67.2527 47.5806 67.2527 47.7206 66.7892C47.9074 66.372 47.7206 66.3257 46.8802 66.3257H43.5649L43.1914 67.2527Z" fill="#021727"/>
<path d="M55.7986 63.9155L55.7519 69.4774L60.0477 63.9155H63.6431L57.106 71.5631C55.6585 71.5631 54.2577 71.5631 52.8569 71.5631L52.2499 63.9155H55.7986Z" fill="#021727"/>
<path d="M64.5768 63.9155H67.892L64.9037 71.5631H61.6351L64.5768 63.9155Z" fill="#021727"/>
<path d="M73.0282 63.7765C74.2423 63.7765 75.4563 63.7765 76.717 63.7765C78.4914 63.7765 79.8455 64.8889 79.2385 67.1136H76.11C76.11 66.5574 75.8299 66.1866 75.2228 66.1866C74.289 66.1866 73.5886 66.1866 72.6547 66.1866C71.8142 66.1866 71.1138 66.6038 70.6469 67.7625C70.2267 68.9212 70.5535 69.3384 71.4407 69.3384C72.3745 69.3384 73.0749 69.3384 74.0088 69.3384C74.6158 69.3384 75.2228 68.9676 75.6431 68.4114H78.7248C77.5575 70.6825 75.3629 71.7949 73.5886 71.7949C72.3745 71.7949 71.1605 71.7949 69.8998 71.7949C67.9387 71.7949 66.5379 70.5435 67.6118 67.8089C68.6858 65.0279 71.1138 63.7765 73.0282 63.7765Z" fill="#021727"/>
<path d="M81.6667 63.9155C84.8418 63.9155 88.0637 63.9155 91.2388 63.9155L90.3516 66.1866C89.6979 66.1866 85.8691 66.1866 84.0947 66.1866L83.8146 66.8819C85.729 66.8819 87.6434 66.8819 89.5578 66.8819L88.8574 68.6895H83.1142L82.834 69.3384H89.0909L88.2037 71.6095C85.0286 71.6095 81.8067 71.6095 78.6316 71.6095L81.6667 63.9155Z" fill="#021727"/>
<path d="M101.745 69.153C100.904 71.2387 99.3168 71.7949 97.5424 71.7949H92.593C90.2583 71.7949 89.698 70.9143 90.4451 68.9212H93.6202C93.4801 69.3384 93.9471 69.3384 94.3673 69.3384C95.5813 69.3384 97.6825 69.3384 98.2428 69.3384C98.5697 69.3384 98.7098 69.1993 98.8499 68.9212C98.9433 68.7359 98.8499 68.6432 98.523 68.6432C96.9821 68.5968 95.3479 68.5505 93.807 68.5041C91.7992 68.5041 90.7719 68.087 91.4256 66.4184C92.2661 64.3327 93.8537 63.7765 95.628 63.7765H100.391C102.725 63.7765 103.286 64.6571 102.492 66.6501H99.3168C99.4569 66.233 98.9899 66.1866 98.6164 66.1866C97.4024 66.1866 95.4879 66.1866 94.9276 66.1866C94.6008 66.1866 94.4607 66.2793 94.3206 66.6038C94.2272 66.7892 94.3206 66.8819 94.6475 66.8819C96.1883 66.9282 97.8226 66.9746 99.3635 67.0209C101.325 67.0209 102.399 67.4381 101.745 69.153Z" fill="#021727"/>
<path d="M190.089 73H103.753L108.002 62.1079H194.338L190.089 73Z" fill="#FE0D0B"/>
<path d="M115.052 64.7961L112.578 70.6361H111.504L112.531 68.1796L110.897 70.6361H110.616L111.037 68.1796L110.009 70.6361H108.935L111.41 64.7961H112.578L112.157 67.3917L113.932 64.7961H115.052Z" fill="white"/>
<path d="M117.434 64.7035H117.901C118.508 64.7035 118.788 65.2133 118.554 65.8159L116.92 69.6165C116.686 70.219 115.986 70.7289 115.379 70.7289H114.912C114.305 70.7289 114.025 70.219 114.258 69.6165L115.893 65.8159C116.126 65.2133 116.827 64.7035 117.434 64.7035ZM115.519 69.6629C115.659 69.6629 115.799 69.5702 115.846 69.4311L117.34 65.9549C117.387 65.8159 117.34 65.7232 117.2 65.7232C117.06 65.7232 116.967 65.8159 116.873 65.9549L115.379 69.4311C115.332 69.5702 115.426 69.6629 115.519 69.6629Z" fill="white"/>
<path d="M120.936 67.6698C121.309 67.6698 121.496 67.9479 121.309 68.3187L120.702 69.7092C120.469 70.219 119.862 70.6361 119.348 70.6361H117.667L120.142 64.7961H121.683H121.823C122.336 64.7961 122.57 65.2133 122.383 65.7231L121.87 66.9746C121.729 67.3453 121.309 67.6698 120.936 67.6698ZM120.142 68.5041C120.235 68.3187 120.142 68.1796 119.955 68.1796H119.862L119.255 69.6165H119.488C119.628 69.6165 119.722 69.5238 119.815 69.3847L120.142 68.5041ZM120.842 65.8158L120.282 67.1136H120.375C120.562 67.1136 120.796 66.9746 120.889 66.7892L121.216 66.0476C121.263 65.9085 121.216 65.8158 121.076 65.8158H120.842Z" fill="white"/>
<path d="M121.543 70.6361L124.017 64.7961H125.091L122.617 70.6361H121.543Z" fill="white"/>
<path d="M126.539 69.6165L126.119 70.6361H123.877L126.352 64.7961H127.426L125.372 69.6165H126.539Z" fill="white"/>
<path d="M130.508 65.8159L129.947 67.16H130.788L130.368 68.1797H129.527L128.967 69.5238H130.088L129.667 70.5435H127.426L129.901 64.7035H132.142L131.722 65.7232H130.508V65.8159Z" fill="white"/>
<path d="M136.204 64.7961C137.045 64.7961 137.185 65.306 136.905 65.9085L135.411 69.5238C135.13 70.1263 134.617 70.6361 133.73 70.6361H132.282L134.757 64.7961H136.204ZM134.056 69.6165C134.197 69.6165 134.29 69.5238 134.383 69.3847L135.784 66.0476C135.831 65.9085 135.784 65.8158 135.644 65.8158H135.411L133.823 69.5701H134.056V69.6165Z" fill="white"/>
<path d="M136.158 70.6361L138.632 64.7961H139.706L137.232 70.6361H136.158Z" fill="white"/>
<path d="M141.621 65.8159L141.061 67.16H141.901L141.481 68.1797H140.64L140.08 69.5238H141.201L140.78 70.5435H138.539L141.014 64.7035H143.255L142.835 65.7232H141.621V65.8159Z" fill="white"/>
<path d="M145.123 66.6965L145.45 65.9549C145.496 65.8159 145.45 65.7232 145.309 65.7232C145.169 65.7232 145.029 65.8159 144.983 65.9549L144.749 66.5575C144.656 66.7429 144.702 66.8356 144.749 66.8819L144.796 66.9282L145.45 67.6235C145.45 67.6235 145.776 67.9016 145.496 68.5505L145.076 69.5702C144.843 70.1727 144.142 70.6825 143.535 70.6825H143.068C142.461 70.6825 142.181 70.1727 142.414 69.5702L142.835 68.5505H143.909L143.535 69.4311C143.488 69.5702 143.535 69.6629 143.675 69.6629C143.815 69.6629 143.909 69.5702 144.002 69.4311L144.329 68.6895C144.329 68.6432 144.376 68.5041 144.329 68.4114L143.628 67.6235C143.348 67.299 143.582 66.8356 143.582 66.8356L144.002 65.8159C144.235 65.2133 144.936 64.7035 145.543 64.7035H146.01C146.617 64.7035 146.897 65.2133 146.664 65.8159L146.29 66.6965H145.123Z" fill="white"/>
<path d="M148.952 65.8159L148.391 67.16H149.232L148.811 68.1797H147.971L147.411 69.5238H148.531L148.111 70.5435H145.87L148.345 64.7035H150.586L150.166 65.7232H148.952V65.8159Z" fill="white"/>
<path d="M151.94 69.6165L151.52 70.6361H149.278L151.753 64.7961H152.827L150.772 69.6165H151.94Z" fill="white"/>
<path d="M160.391 64.7961L157.917 70.6361H156.843L157.87 68.1796L156.236 70.6361H155.956L156.376 68.1796L155.348 70.6361H154.275L156.749 64.7961H157.917L157.496 67.3917L159.271 64.7961H160.391Z" fill="white"/>
<path d="M162.259 65.8159L161.699 67.16H162.539L162.119 68.1797H161.279L160.718 69.5238H161.839L161.419 70.5435H159.177L161.652 64.7035H163.894L163.473 65.7232H162.259V65.8159Z" fill="white"/>
<path d="M166.275 68.087L165.621 69.6165C165.388 70.219 164.687 70.7289 164.08 70.7289H163.613C163.006 70.7289 162.726 70.219 162.96 69.6165L164.594 65.8159C164.827 65.2133 165.528 64.7035 166.135 64.7035H166.602C167.209 64.7035 167.489 65.2133 167.255 65.8159L166.742 67.0673H165.668L166.135 66.0013C166.181 65.8622 166.135 65.7695 165.995 65.7695C165.855 65.7695 165.715 65.8622 165.668 66.0013L164.174 69.4775C164.127 69.6165 164.174 69.7092 164.314 69.7092C164.454 69.7092 164.547 69.6165 164.641 69.4775L165.201 68.1333H166.275V68.087Z" fill="white"/>
<path d="M171.551 64.7961L169.076 70.6361H168.002L169.03 68.226H168.563L167.535 70.6361H166.462L168.936 64.7961H170.01L168.983 67.2063H169.45L170.477 64.7961H171.551Z" fill="white"/>
<path d="M170.244 70.6361L173.512 64.7961H174.82L173.139 70.6361H172.205L172.438 69.8946H171.645L171.224 70.6361H170.244ZM172.112 68.9676H172.672L173.232 66.9746L172.112 68.9676Z" fill="white"/>
<path d="M179.396 64.7961L176.921 70.6361H175.894L176.267 68.4577L175.333 70.6361H174.306L176.781 64.7961H177.761L177.715 65.0742L177.388 67.2063L178.415 64.7961H179.396Z" fill="white"/>
<path d="M178.135 70.6361L180.61 64.7961H181.684L179.209 70.6361H178.135Z" fill="white"/>
<path d="M184.205 68.087L183.551 69.6165C183.318 70.219 182.618 70.7289 182.011 70.7289H181.544C180.937 70.7289 180.656 70.219 180.89 69.6165L182.524 65.8159C182.758 65.2133 183.458 64.7035 184.065 64.7035H184.532C185.139 64.7035 185.419 65.2133 185.186 65.8159L184.672 67.0673H183.598L184.065 66.0013C184.112 65.8622 184.065 65.7695 183.925 65.7695C183.785 65.7695 183.692 65.8622 183.598 66.0013L182.104 69.4775C182.057 69.6165 182.104 69.7092 182.244 69.7092C182.384 69.7092 182.477 69.6165 182.571 69.4775L183.131 68.1333H184.205V68.087Z" fill="white"/>
<path d="M187.567 66.6965L187.894 65.9549C187.941 65.8159 187.894 65.7232 187.754 65.7232C187.614 65.7232 187.52 65.8159 187.427 65.9549L187.193 66.5575C187.1 66.7429 187.147 66.8356 187.193 66.8819L187.24 66.9282L187.894 67.6235C187.894 67.6235 188.221 67.9016 187.941 68.5505L187.52 69.5702C187.287 70.1727 186.586 70.6825 185.979 70.6825H185.512C184.905 70.6825 184.625 70.1727 184.859 69.5702L185.279 68.5505H186.353L185.979 69.4311C185.933 69.5702 185.979 69.6629 186.12 69.6629C186.26 69.6629 186.4 69.5702 186.446 69.4311L186.773 68.6895C186.773 68.6432 186.82 68.5041 186.773 68.4114L186.073 67.6235C185.793 67.299 186.026 66.8356 186.026 66.8356L186.446 65.8159C186.68 65.2133 187.38 64.7035 187.987 64.7035H188.454C189.061 64.7035 189.341 65.2133 189.108 65.8159L188.734 66.6965H187.567Z" fill="white"/>
</g>
<defs>
<clipPath id="clip0_2101_30">
<rect width="215.256" height="73" fill="white"/>
</clipPath>
</defs>
</svg>
