<svg width="232" height="49" viewBox="0 0 232 49" fill="none" xmlns="http://www.w3.org/2000/svg">
<g clip-path="url(#clip0_92_2)">
<path d="M48.0051 30.6808C48.0051 23.6716 53.4595 18.2173 60.8905 18.2173C67.267 18.2173 72.0346 22.1118 73.3541 27.625H67.424C66.7291 26.1449 65.5506 24.9459 64.0827 24.2255C62.6148 23.5052 60.9453 23.3066 59.3494 23.6626C57.7535 24.0186 56.3266 24.9078 55.304 26.1837C54.2814 27.4595 53.7242 29.0458 53.7242 30.6808C53.7242 32.3159 54.2814 33.9022 55.304 35.178C56.3266 36.4539 57.7535 37.3431 59.3494 37.6991C60.9453 38.0551 62.6148 37.8565 64.0827 37.1362C65.5506 36.4158 66.7291 35.2168 67.424 33.7367H73.3541C72.0346 39.24 67.2425 43.164 60.8905 43.164C53.4644 43.164 48.0051 37.695 48.0051 30.6808Z" fill="#192E1C"/>
<path d="M103.986 37.9938V42.6732C103.398 42.9961 102.738 43.1648 102.068 43.1637C100.719 43.1794 99.3934 42.8103 98.2467 42.0997C97.1 41.3891 96.1796 40.3664 95.5933 39.1514C94.5508 40.4138 93.2407 41.4286 91.7579 42.1226C90.275 42.8165 88.6565 43.1721 87.0193 43.1637C80.2505 43.1637 74.855 37.6505 74.855 30.7001C74.855 23.7498 80.2505 18.2366 87.0193 18.2366C89.8831 18.2182 92.6466 19.2896 94.7496 21.2335V18.6976H100.444V35.3157C100.444 37.415 101.523 38.0135 102.661 38.0135L103.986 37.9938ZM94.9311 30.6805C94.9311 29.2583 94.5094 27.8681 93.7192 26.6856C92.9291 25.5031 91.8061 24.5814 90.4921 24.0372C89.1782 23.4929 87.7324 23.3505 86.3375 23.628C84.9427 23.9054 83.6614 24.5903 82.6558 25.5959C81.6501 26.6015 80.9653 27.8828 80.6878 29.2777C80.4104 30.6725 80.5528 32.1183 81.097 33.4323C81.6413 34.7462 82.5629 35.8692 83.7454 36.6594C84.9279 37.4495 86.3182 37.8712 87.7404 37.8712C88.6852 37.8731 89.6211 37.6885 90.4944 37.3278C91.3677 36.9671 92.1612 36.4375 92.8293 35.7694C93.4974 35.1013 94.027 34.3079 94.3877 33.4346C94.7484 32.5613 94.933 31.6253 94.9311 30.6805Z" fill="#192E1C"/>
<path d="M128.368 18.6978L118.701 42.6733H113.305L103.74 18.6978H109.793L116.027 36.493L122.321 18.6978H128.368Z" fill="#192E1C"/>
<path d="M158.696 37.9938V42.6732C158.108 42.9961 157.448 43.1648 156.778 43.1637C155.429 43.1794 154.104 42.8103 152.957 42.0997C151.81 41.3891 150.89 40.3664 150.303 39.1514C149.264 40.4106 147.958 41.4235 146.479 42.1173C145.001 42.8111 143.387 43.1685 141.754 43.1637C134.985 43.1637 129.59 37.6505 129.59 30.7001C129.59 23.7498 134.985 18.2366 141.754 18.2366C144.618 18.2182 147.381 19.2896 149.484 21.2335V18.6976H155.179V35.3157C155.179 37.415 156.258 38.0135 157.396 38.0135L158.696 37.9938ZM149.646 30.6805C149.646 29.2583 149.224 27.8681 148.434 26.6856C147.644 25.5031 146.521 24.5814 145.207 24.0372C143.893 23.4929 142.448 23.3505 141.053 23.628C139.658 23.9054 138.377 24.5903 137.371 25.5959C136.365 26.6015 135.68 27.8828 135.403 29.2777C135.125 30.6725 135.268 32.1183 135.812 33.4323C136.356 34.7462 137.278 35.8692 138.461 36.6594C139.643 37.4495 141.033 37.8712 142.455 37.8712C143.4 37.8731 144.336 37.6885 145.21 37.3278C146.083 36.9671 146.876 36.4375 147.544 35.7694C148.213 35.1013 148.742 34.3079 149.103 33.4346C149.463 32.5613 149.648 31.6253 149.646 30.6805Z" fill="#192E1C"/>
<path d="M162.291 0H167.986V42.6734H162.291V0Z" fill="#192E1C"/>
<path d="M174.397 11.0852C174.381 10.403 174.569 9.73163 174.937 9.15676C175.304 8.5819 175.835 8.12963 176.461 7.85768C177.087 7.58574 177.779 7.50645 178.451 7.62993C179.122 7.75342 179.741 8.07408 180.229 8.55099C180.717 9.02789 181.052 9.63942 181.191 10.3075C181.33 10.9756 181.266 11.6699 181.009 12.3019C180.752 12.9339 180.312 13.4748 179.746 13.8557C179.179 14.2365 178.513 14.44 177.83 14.4402C176.933 14.4405 176.071 14.0895 175.43 13.4625C174.788 12.8355 174.417 11.9822 174.397 11.0852ZM174.995 18.6977H180.631V42.6733H174.995V18.6977Z" fill="#192E1C"/>
<path d="M211.37 31.5784H191.716C192.015 35.5956 194.831 38.411 198.848 38.411C201.904 38.411 204.302 36.7924 205.323 34.2761H211.012C209.634 39.4901 205.028 43.1639 198.848 43.1639C191.417 43.1639 185.963 37.8911 185.963 30.7004C185.963 23.5097 191.476 18.2368 198.789 18.2368C206.103 18.2368 211.312 23.392 211.434 30.5827L211.37 31.5784ZM192.197 27.5072H205.2C204.18 24.7506 201.963 23.0094 198.824 23.0094C197.387 22.9716 195.975 23.3853 194.787 24.1922C193.598 24.9991 192.692 26.1585 192.197 27.5072Z" fill="#192E1C"/>
<path d="M231.27 18.3988V23.7305C230.601 23.5818 229.919 23.5012 229.234 23.4902C225.1 23.4902 221.98 26.3057 221.98 30.5043V42.6736H216.31V18.698H222V21.9942C222.827 20.8139 223.929 19.8531 225.211 19.195C226.493 18.5369 227.916 18.2013 229.357 18.2173C229.999 18.2142 230.64 18.275 231.27 18.3988Z" fill="#192E1C"/>
<path d="M111.731 19.1294H114.217L116.057 25.5794L117.926 19.1294H120.412L116.072 31.5684L111.731 19.1294Z" fill="#4FC93C"/>
<path d="M31.7156 48.5938H9.01537C6.62514 48.5913 4.33356 47.6406 2.64341 45.9504C0.953266 44.2603 0.002602 41.9687 5.33634e-06 39.5785V16.8782C-0.00128355 15.6932 0.230919 14.5196 0.683346 13.4244C1.13577 12.3292 1.79956 11.3339 2.63678 10.4953C3.47399 9.65674 4.46824 8.99133 5.5627 8.53712C6.65716 8.0829 7.83039 7.84879 9.01537 7.84814H31.7156C34.105 7.85594 36.3938 8.81091 38.0801 10.5037C39.7664 12.1964 40.7127 14.4888 40.7114 16.8782V39.5785C40.7075 41.9649 39.7591 44.2528 38.0735 45.9421C36.3879 47.6314 34.1021 48.5848 31.7156 48.5938Z" fill="#192E1C"/>
<path d="M24.8438 21.6309C27.1113 21.3689 29.3965 21.2935 31.6764 21.4053C31.7311 21.4072 31.7856 21.3982 31.8367 21.3786C31.8879 21.359 31.9345 21.3294 31.9739 21.2914C32.0132 21.2534 32.0446 21.2078 32.0659 21.1574C32.0873 21.1071 32.0983 21.0529 32.0983 20.9982V16.6278C32.0975 16.5259 32.059 16.4278 31.9901 16.3526C31.9213 16.2774 31.827 16.2304 31.7255 16.2207H31.6666L24.1718 16.6131C24.1718 16.6131 21.7831 16.6131 20.3655 18.2857C18.948 16.618 16.5446 16.6131 16.5446 16.6131L9.05955 16.2207H9.00559C8.90368 16.2293 8.80874 16.276 8.73967 16.3514C8.6706 16.4269 8.63245 16.5255 8.63282 16.6278V20.9982C8.63282 21.1061 8.67571 21.2097 8.75206 21.286C8.8284 21.3624 8.93196 21.4053 9.03993 21.4053C10.3643 21.4053 15.1319 21.2974 17.04 21.8614C17.8693 22.103 18.6567 22.4703 19.3747 22.9503C19.6653 23.1437 20.0066 23.2469 20.3557 23.2469C20.7048 23.2469 21.0461 23.1437 21.3367 22.9503C22.3963 22.2616 23.593 21.8114 24.8438 21.6309Z" fill="#4FC93C"/>
<path d="M24.8437 30.1265C27.1117 29.8695 29.397 29.8006 31.6763 29.9205C31.731 29.9225 31.7855 29.9134 31.8367 29.8939C31.8878 29.8743 31.9344 29.8446 31.9738 29.8066C32.0131 29.7686 32.0445 29.7231 32.0658 29.6727C32.0872 29.6223 32.0982 29.5681 32.0982 29.5134V25.1185C32.0974 25.0166 32.0589 24.9185 31.99 24.8433C31.9212 24.7681 31.8269 24.7211 31.7254 24.7114H31.6665L24.1717 25.1038C24.1717 25.1038 21.783 25.1038 20.3654 26.7813C18.9479 25.1087 16.5445 25.1038 16.5445 25.1038L9.05945 24.7114H9.0055C8.904 24.7211 8.80971 24.7681 8.74085 24.8433C8.672 24.9185 8.63347 25.0166 8.63272 25.1185V29.4889C8.63206 29.5425 8.64214 29.5958 8.66237 29.6455C8.6826 29.6951 8.71256 29.7403 8.75049 29.7782C8.78843 29.8162 8.83357 29.8461 8.88326 29.8663C8.93295 29.8866 8.98619 29.8967 9.03983 29.896C10.3642 29.896 15.1318 29.793 17.0399 30.3522C17.8692 30.5938 18.6566 30.961 19.3746 31.4411C19.6653 31.6345 20.0065 31.7376 20.3556 31.7376C20.7047 31.7376 21.046 31.6345 21.3366 31.4411C22.3957 30.7522 23.5928 30.3036 24.8437 30.1265Z" fill="#D3ECD9"/>
<path d="M24.8437 38.6167C27.111 38.3521 29.3965 38.2766 31.6763 38.3911C31.7309 38.3924 31.7851 38.3829 31.8359 38.3631C31.8867 38.3433 31.9331 38.3135 31.9723 38.2757C32.0115 38.2378 32.0429 38.1925 32.0645 38.1425C32.0861 38.0924 32.0975 38.0385 32.0982 37.984V33.6137C32.0985 33.5114 32.0604 33.4127 31.9913 33.3373C31.9223 33.2618 31.8273 33.2152 31.7254 33.2065H31.6665L24.1717 33.594C24.1717 33.594 21.783 33.594 20.3655 35.2715C18.9479 33.6038 16.5445 33.594 16.5445 33.594L9.05947 33.2065H9.00551C8.90317 33.214 8.80756 33.2604 8.73826 33.3361C8.66896 33.4117 8.63121 33.5111 8.63273 33.6137V37.984C8.63273 38.092 8.67563 38.1955 8.75198 38.2719C8.82832 38.3482 8.93188 38.3911 9.03985 38.3911C10.3642 38.3911 15.1318 38.2832 17.0399 38.8424C17.8695 39.0854 18.6569 39.4543 19.3747 39.9362C19.6653 40.1296 20.0066 40.2328 20.3556 40.2328C20.7047 40.2328 21.046 40.1296 21.3366 39.9362C22.3963 39.2475 23.5929 38.7973 24.8437 38.6167Z" fill="#4FC93C"/>
</g>
<defs>
<clipPath id="clip0_92_2">
<rect width="231.27" height="48.5937" fill="white"/>
</clipPath>
</defs>
</svg>
