<svg width="534" height="87" viewBox="0 0 534 87" fill="none" xmlns="http://www.w3.org/2000/svg">
<g clip-path="url(#clip0_4003_464)">
<path d="M70.1825 73.7672C63.9749 72.6705 58.7166 70.8428 54.5539 69.1613C53.3124 68.6495 51.8518 68.6495 50.6102 69.1613C46.4475 70.8428 41.1893 72.6705 34.9817 73.7672C27.7517 75.0831 21.471 75.1562 16.651 74.8638C18.915 77.1302 22.2744 80.0546 26.7292 82.5403C30.5999 84.8067 34.2514 86.1226 37.1726 86.9268C40.0208 86.4151 43.1611 85.7571 46.4475 84.7336C47.9811 84.2949 49.5148 83.8562 50.9024 83.3445C51.9978 82.9789 53.1663 82.9789 54.2618 83.3445C55.3572 83.71 57.183 84.2949 58.7166 84.7336C62.003 85.684 65.1433 86.4151 67.9915 86.9268C70.8397 86.1226 74.4913 84.7336 78.4349 82.5403C82.8898 79.9815 86.1762 77.1302 88.5131 74.8638C83.6931 75.1562 77.4125 75.01 70.1825 73.7672Z" fill="#FF5033"/>
<path d="M76.0249 56.2941C66.6039 54.905 59.3009 51.6151 54.6269 48.9831C53.3854 48.252 51.7787 48.252 50.5372 48.9831C45.8632 51.6151 38.5602 54.9781 29.1392 56.2941C17.8195 57.9756 8.69064 56.0747 3.57849 54.6125C4.16274 56.952 5.2582 60.0226 7.08396 63.3125C8.54457 65.9445 10.2243 67.9915 11.6119 69.5999C17.3083 70.1848 25.1956 70.4041 34.3244 68.6495C40.9702 67.4067 46.5935 65.5058 50.9754 63.605C55.3572 61.7041 53.1663 63.1663 54.2618 63.605C58.6436 65.5058 64.2669 67.4067 70.9127 68.6495C80.0416 70.4041 87.9289 70.1848 93.6253 69.5999C95.0128 68.0646 96.6926 65.9445 98.1532 63.3125C100.052 60.0226 101.074 56.952 101.659 54.6125C96.5465 56.0747 87.3446 57.9025 76.0979 56.2941H76.0249Z" fill="#FF5033"/>
<path d="M105.091 33.7764C101.658 35.531 91.5802 39.9907 78.4347 37.8705C66.5307 35.9697 58.5704 29.8285 54.6267 26.0999C53.4582 25.0033 51.6325 25.0033 50.464 26.0999C46.5933 29.8285 38.56 35.9697 26.656 37.8705C13.5105 39.9907 3.43224 35.531 -0.000202872 33.7764C-0.146264 35.9697 -0.219295 38.7478 0.145858 41.7453C0.511012 44.6697 1.09526 47.1554 1.6795 49.2756C6.49952 50.884 16.1396 53.4428 28.1896 51.6151C38.56 50.0798 46.3012 45.9857 50.8291 43.0613C51.8515 42.4033 53.0931 42.4033 54.1155 43.0613C58.6434 45.9857 66.3846 50.0798 76.755 51.6151C88.805 53.3697 98.4451 50.884 103.265 49.2756C103.849 47.2285 104.434 44.6697 104.799 41.7453C105.164 38.7478 105.091 35.9697 104.945 33.7764H105.091Z" fill="#FF5033"/>
<path d="M62.2951 13.3059C58.0593 9.21177 55.6493 4.67899 54.2617 1.09664C53.6775 -0.365546 51.5596 -0.365546 50.9754 1.09664C49.5878 4.67899 47.1047 9.21177 42.942 13.3059C38.195 17.9118 33.1559 20.1782 30.1616 21.2017V31.8756C33.1559 31.1445 37.6107 29.7555 42.2847 26.758C46.3014 24.2723 49.1496 21.421 51.1944 19.0815C51.9978 18.2042 53.3854 18.2042 54.1887 19.0815C56.2336 21.421 59.1548 24.2723 63.0984 26.758C67.7724 29.6824 72.1542 31.1445 75.2215 31.8756V21.2017C72.2273 20.1782 67.1882 17.9118 62.4412 13.3059H62.2951Z" fill="#FF5033"/>
<path d="M50.6832 69.0883C46.5205 70.7698 41.2623 72.5975 35.0547 73.6942C27.8247 75.0101 21.544 75.0833 16.724 74.7908C18.9879 77.0572 22.3474 79.9816 26.8022 82.4673C30.6729 84.7337 34.3244 86.0496 37.2456 86.8538C40.0938 86.3421 43.2341 85.6841 46.5205 84.6606C48.0541 84.2219 49.5878 83.7833 50.9754 83.2715C51.4866 83.0522 52.0708 82.979 52.6551 82.979V68.5034C51.9978 68.5034 51.3405 68.6496 50.6832 68.869V69.0883Z" fill="#FF6B57"/>
<path d="M50.5372 48.9832C45.8632 51.6151 38.5602 54.9781 29.1392 56.2941C17.8195 57.9756 8.69064 56.0748 3.57849 54.6126C4.16274 56.9521 5.2582 60.0227 7.08396 63.3126C8.54457 65.9445 10.2243 67.9916 11.6119 69.6C17.3083 70.1849 25.1956 70.4042 34.3244 68.6496C40.9702 67.4067 46.5935 65.5059 50.9754 63.605C51.4866 63.3857 52.0708 63.2395 52.582 63.2395V48.3252C51.8517 48.3252 51.1945 48.4714 50.5372 48.837V48.9832Z" fill="#FF6B57"/>
<path d="M50.5371 26.1C46.6665 29.8286 38.6331 35.9697 26.7292 37.8706C13.5836 39.9907 3.50542 35.5311 0.0729783 33.7765C-0.073083 35.9697 -0.146114 38.7479 0.21904 41.7454C0.584193 44.6697 1.16844 47.1554 1.75268 49.2756C6.5727 50.884 16.2127 53.4428 28.2628 51.6151C38.6331 50.0798 46.3744 45.9857 50.9023 43.0613C51.4135 42.7689 51.9978 42.5496 52.509 42.5496V25.2958C51.7787 25.2958 51.0484 25.5882 50.4641 26.1H50.5371Z" fill="#FF6B57"/>
<path d="M50.9754 1.09664C49.5878 4.67899 47.1047 9.21177 42.942 13.3059C38.195 17.9118 33.1559 20.1782 30.1616 21.2017V31.8756C33.1559 31.1445 37.6107 29.7555 42.2847 26.758C46.3014 24.2723 49.1496 21.421 51.1944 19.0815C51.5596 18.6429 52.1438 18.4235 52.7281 18.4235V0C52.0708 0 51.3405 0.365546 51.0484 1.09664H50.9754Z" fill="#FF6B57"/>
<path d="M136.859 69.3076H128.096L144.016 24.1261H154.095L170.015 69.3076H161.252L149.202 33.3379H148.836L136.786 69.3076H136.859ZM137.078 51.6152H160.886V58.195H137.078V51.6152Z" fill="#0A2540"/>
<path d="M174.032 69.3075V35.3848H181.773V41.0142H182.138C182.723 39.0403 183.818 37.5781 185.352 36.4815C186.885 35.3848 188.565 34.873 190.537 34.873C192.509 34.873 191.486 34.873 191.998 34.873C192.582 34.873 193.02 34.9462 193.385 35.0193V42.4033C193.02 42.2571 192.509 42.184 191.778 42.1109C191.048 42.0378 190.318 41.9646 189.661 41.9646C188.2 41.9646 186.885 42.2571 185.717 42.9151C184.548 43.573 183.672 44.3772 183.015 45.4739C182.357 46.5705 181.992 47.8865 181.992 49.2756V69.2344H174.032V69.3075Z" fill="#0A2540"/>
<path d="M197.11 69.3076V24.1261H205.07V69.3076H197.11ZM204.413 58.7068V49.0564H205.654L217.85 35.458H227.198L212.227 52.1269H210.547L204.413 58.7068ZM218.362 69.3076L207.334 53.8816L212.738 48.2521L227.929 69.3076H218.362Z" fill="#0A2540"/>
<path d="M240.636 70.0386C238.518 70.0386 236.546 69.6731 234.867 68.8689C233.187 68.0647 231.799 66.968 230.777 65.4327C229.754 63.8974 229.316 62.0697 229.316 59.8033C229.316 57.5369 229.681 56.2941 230.339 55.0512C231.069 53.8084 232.018 52.7848 233.26 52.0537C234.501 51.3226 235.889 50.7378 237.423 50.3722C238.956 50.0067 240.563 49.7142 242.17 49.4949C244.141 49.2756 245.748 49.1294 246.99 48.91C248.231 48.7638 249.107 48.4714 249.692 48.1058C250.276 47.7403 250.568 47.1554 250.568 46.4243V46.2781C250.568 44.5966 250.057 43.3537 249.108 42.4033C248.158 41.526 246.697 41.0142 244.872 41.0142C243.046 41.0142 241.366 41.4529 240.198 42.3302C239.029 43.2075 238.299 44.1579 237.861 45.3277L230.412 44.3041C230.996 42.2571 231.945 40.5025 233.333 39.1134C234.72 37.7243 236.327 36.7008 238.299 35.9697C240.271 35.2386 242.389 34.9462 244.799 34.9462C247.209 34.9462 248.085 35.1655 249.692 35.531C251.298 35.8966 252.759 36.5546 254.147 37.4319C255.461 38.3092 256.557 39.4789 257.36 41.0142C258.163 42.5495 258.601 44.3773 258.601 46.6436V69.3075H250.933V64.6285H250.641C250.13 65.5789 249.473 66.4562 248.596 67.2605C247.72 68.0647 246.624 68.7226 245.31 69.2344C243.995 69.7462 242.462 69.9655 240.709 69.9655L240.636 70.0386ZM242.754 64.1168C244.36 64.1168 245.748 63.8243 246.917 63.1663C248.085 62.5084 249.034 61.7042 249.619 60.6075C250.276 59.584 250.568 58.4142 250.568 57.1714V53.1504C250.349 53.3697 249.911 53.5159 249.327 53.7352C248.742 53.8815 248.085 54.1008 247.355 54.1739C246.624 54.3201 245.894 54.3932 245.164 54.5394C244.434 54.6126 243.849 54.7588 243.265 54.8319C242.097 54.9781 241.001 55.2705 240.052 55.6361C239.102 56.0016 238.372 56.5134 237.861 57.1714C237.35 57.8294 237.057 58.6336 237.057 59.7302C237.057 61.1924 237.569 62.289 238.664 63.0932C239.76 63.8243 241.074 64.1899 242.754 64.1899V64.1168Z" fill="#0A2540"/>
<path d="M303.807 36.5546C303.588 34.6537 302.712 33.1184 301.251 32.0218C299.718 30.9252 297.746 30.4134 295.336 30.4134C292.926 30.4134 292.196 30.7058 290.954 31.2176C289.713 31.7294 288.836 32.4605 288.179 33.3378C287.522 34.2151 287.229 35.2386 287.156 36.3353C287.156 37.2857 287.376 38.0899 287.814 38.821C288.252 39.479 288.836 40.0638 289.566 40.5756C290.297 41.0874 291.173 41.4529 292.05 41.7453C292.926 42.0378 293.875 42.3302 294.825 42.5495L299.06 43.5731C300.74 43.9386 302.42 44.5235 303.954 45.1815C305.56 45.8395 306.948 46.7168 308.189 47.7403C309.431 48.7638 310.453 50.0067 311.184 51.4689C311.914 52.9311 312.279 54.6126 312.279 56.5865C312.279 58.5605 311.622 61.5579 310.234 63.605C308.847 65.5789 306.948 67.1874 304.392 68.284C301.836 69.3806 298.768 69.9655 295.117 69.9655C291.465 69.9655 288.544 69.4537 285.988 68.3571C283.432 67.2605 281.387 65.6521 279.926 63.605C278.466 61.4848 277.662 58.9991 277.589 56.0016H285.623C285.769 57.61 286.207 58.8529 287.083 59.9495C287.96 60.9731 289.055 61.7773 290.443 62.289C291.83 62.8008 293.364 63.0932 295.044 63.0932C296.723 63.0932 298.403 62.8008 299.718 62.289C301.032 61.7773 302.128 60.9731 302.858 60.0226C303.588 59.0722 304.027 57.9025 304.027 56.6596C304.027 55.4899 303.661 54.5395 303.004 53.7353C302.347 52.9311 301.397 52.3462 300.156 51.7613C298.914 51.2495 297.527 50.7378 295.92 50.3722L290.808 49.0563C287.083 48.1058 284.162 46.6437 281.971 44.6697C279.853 42.6958 278.758 40.1369 278.758 36.9201C278.758 33.7033 279.488 31.9487 280.949 29.9016C282.409 27.9277 284.381 26.3193 286.864 25.2226C289.347 24.126 292.196 23.5411 295.336 23.5411C298.476 23.5411 301.324 24.126 303.734 25.2226C306.144 26.3193 308.043 27.8546 309.431 29.8285C310.818 31.8025 311.549 34.0689 311.549 36.6277H303.661L303.807 36.5546Z" fill="#0A2540"/>
<path d="M332.435 69.9655C329.149 69.9655 326.228 69.2344 323.818 67.7722C321.408 66.31 319.509 64.263 318.194 61.631C316.88 58.9991 316.223 55.9285 316.223 52.4193C316.223 48.91 316.88 45.8394 318.194 43.2075C319.509 40.5756 321.408 38.5285 323.818 37.0663C326.228 35.6041 329.076 34.873 332.435 34.873C335.795 34.873 338.643 35.6041 341.053 37.0663C343.463 38.5285 345.362 40.5756 346.676 43.2075C347.991 45.8394 348.648 48.91 348.648 52.4193C348.648 55.9285 347.991 58.9991 346.676 61.631C345.362 64.263 343.463 66.31 341.053 67.7722C338.643 69.2344 335.795 69.9655 332.435 69.9655ZM332.435 63.605C334.261 63.605 335.722 63.0932 336.963 62.1428C338.132 61.1193 339.081 59.8033 339.665 58.1218C340.25 56.4403 340.542 54.5394 340.542 52.4924C340.542 50.4453 340.25 48.5445 339.665 46.863C339.081 45.1814 338.205 43.8655 336.963 42.842C335.722 41.8184 334.261 41.3067 332.435 41.3067C330.61 41.3067 329.076 41.8184 327.835 42.842C326.593 43.8655 325.717 45.1814 325.132 46.863C324.548 48.5445 324.256 50.4453 324.256 52.4924C324.256 54.5394 324.548 56.4403 325.132 58.1218C325.717 59.8033 326.666 61.1193 327.835 62.1428C329.003 63.1663 330.537 63.605 332.435 63.605Z" fill="#0A2540"/>
<path d="M370.996 35.458V41.6722H350.985V35.458H370.996ZM355.951 69.3075V32.168C355.951 29.9017 356.389 28.0008 357.339 26.4655C358.288 24.9302 359.53 23.8336 361.136 23.1025C362.743 22.3714 364.496 22.0059 366.468 22.0059C368.44 22.0059 369.097 22.1521 370.119 22.3714C371.215 22.5907 372.018 22.8101 372.529 22.9563L370.923 29.1706C370.557 29.0975 370.192 28.9512 369.608 28.8781C369.097 28.7319 368.513 28.7319 367.855 28.7319C366.395 28.7319 365.299 29.0975 364.715 29.8285C364.131 30.5596 363.766 31.5832 363.766 32.8991V69.4538H355.732L355.951 69.3075Z" fill="#0A2540"/>
<path d="M392.613 35.458V41.6723H373.113V35.458H392.613ZM377.934 27.3429H385.894V59.1454C385.894 60.242 386.04 61.0462 386.405 61.6311C386.77 62.216 387.208 62.5815 387.72 62.8009C388.231 63.0202 388.888 63.0933 389.545 63.0933C390.203 63.0933 390.495 63.0933 390.933 62.9471C391.371 62.874 391.663 62.8009 391.882 62.7278L393.197 68.942C392.759 69.0883 392.175 69.2345 391.371 69.4538C390.568 69.6731 389.618 69.7463 388.523 69.7463C386.551 69.7463 384.725 69.5269 383.119 68.7958C381.512 68.1378 380.271 67.1143 379.321 65.6521C378.372 64.2631 377.934 62.5084 377.934 60.3883V27.2698V27.3429Z" fill="#0A2540"/>
<path d="M404.736 69.3076L395.169 35.3849H403.275L409.264 59.2185H409.556L415.617 35.3849H423.651L429.712 59.0723H430.077L435.92 35.3849H444.099L434.532 69.3076H426.207L419.853 46.4244H419.415L413.061 69.3076H404.736Z" fill="#0A2540"/>
<path d="M457.902 70.0386C455.784 70.0386 453.812 69.6731 452.133 68.8689C450.453 68.0647 449.065 66.968 448.043 65.4327C447.021 63.8974 446.582 62.0697 446.582 59.8033C446.582 57.5369 446.948 56.2941 447.605 55.0512C448.335 53.8084 449.284 52.7848 450.526 52.0537C451.768 51.3226 453.155 50.7378 454.689 50.3722C456.222 50.0067 457.829 49.7142 459.436 49.4949C461.408 49.2756 463.014 49.1294 464.256 48.91C465.497 48.7638 466.374 48.4714 466.958 48.1058C467.542 47.7403 467.834 47.1554 467.834 46.4243V46.2781C467.834 44.5966 467.323 43.3537 466.374 42.4033C465.424 41.526 463.964 41.0142 462.138 41.0142C460.312 41.0142 458.632 41.4529 457.464 42.3302C456.295 43.2075 455.565 44.1579 455.127 45.3277L447.678 44.3041C448.262 42.2571 449.211 40.5025 450.599 39.1134C451.987 37.7243 453.593 36.7008 455.565 35.9697C457.537 35.2386 459.655 34.9462 462.065 34.9462C464.475 34.9462 465.351 35.1655 466.958 35.531C468.565 35.8966 470.025 36.5546 471.413 37.4319C472.727 38.3092 473.823 39.4789 474.626 41.0142C475.429 42.5495 475.868 44.3773 475.868 46.6436V69.3075H468.199V64.6285H467.907C467.396 65.5789 466.739 66.4562 465.862 67.2605C464.986 68.0647 463.891 68.7226 462.576 69.2344C461.262 69.7462 459.728 69.9655 457.975 69.9655L457.902 70.0386ZM460.02 64.1168C461.627 64.1168 463.014 63.8243 464.183 63.1663C465.351 62.5084 466.301 61.7042 466.885 60.6075C467.542 59.584 467.834 58.4142 467.834 57.1714V53.1504C467.615 53.3697 467.177 53.5159 466.593 53.7352C466.009 53.8815 465.351 54.1008 464.621 54.1739C463.891 54.3201 463.16 54.3932 462.43 54.5394C461.7 54.6126 461.115 54.7588 460.531 54.8319C459.363 54.9781 458.267 55.2705 457.318 55.6361C456.368 56.0016 455.638 56.5134 455.127 57.1714C454.616 57.8294 454.324 58.6336 454.324 59.7302C454.324 61.1924 454.835 62.289 455.93 63.0932C457.026 63.8243 458.34 64.1899 460.02 64.1899V64.1168Z" fill="#0A2540"/>
<path d="M482.294 69.3075V35.3848H490.036V41.0142H490.401C490.985 39.0403 492.08 37.5781 493.614 36.4815C495.148 35.3848 496.827 34.873 498.799 34.873C500.771 34.873 499.749 34.873 500.26 34.873C500.844 34.873 501.282 34.9462 501.647 35.0193V42.4033C501.282 42.2571 500.771 42.184 500.041 42.1109C499.31 42.0378 498.58 41.9646 497.923 41.9646C496.462 41.9646 495.148 42.2571 493.979 42.9151C492.811 43.573 491.934 44.3772 491.277 45.4739C490.62 46.5705 490.255 47.8865 490.255 49.2756V69.2344H482.294V69.3075Z" fill="#0A2540"/>
<path d="M518.956 69.9655C515.596 69.9655 512.602 69.2344 510.192 67.8453C507.709 66.4563 505.81 64.4092 504.496 61.7773C503.181 59.1453 502.524 56.0747 502.524 52.5655C502.524 49.0563 503.181 45.9857 504.496 43.3537C505.81 40.7218 507.709 38.6747 510.119 37.1394C512.529 35.6773 515.304 34.9462 518.591 34.9462C521.877 34.9462 522.68 35.3117 524.506 35.9697C526.332 36.6277 528.012 37.6512 529.472 39.0403C530.933 40.4294 532.028 42.184 532.832 44.3773C533.635 46.4974 534.073 49.1294 534.073 52.0537V54.5394H506.321V49.1294H526.405C526.405 47.5941 526.04 46.205 525.382 45.0352C524.725 43.8655 523.849 42.9151 522.68 42.184C521.512 41.526 520.197 41.1605 518.664 41.1605C517.13 41.1605 515.596 41.526 514.355 42.3302C513.113 43.1344 512.164 44.1579 511.507 45.4008C510.849 46.6436 510.484 48.0327 510.484 49.568V54.247C510.484 56.221 510.849 57.9025 511.58 59.2915C512.31 60.6806 513.332 61.7773 514.574 62.5084C515.888 63.2394 517.349 63.605 519.102 63.605C520.855 63.605 521.293 63.4588 522.242 63.0932C523.191 62.7277 523.995 62.289 524.725 61.631C525.382 60.9731 525.967 60.1689 526.259 59.2184L533.708 60.0226C533.27 61.9966 532.32 63.6781 531.006 65.2134C529.691 66.6756 528.012 67.8453 525.967 68.5764C523.922 69.3075 521.585 69.7462 518.956 69.7462V69.9655Z" fill="#0A2540"/>
</g>
<defs>
<clipPath id="clip0_4003_464">
<rect width="534" height="87" fill="white"/>
</clipPath>
</defs>
</svg>
