<?xml version="1.0" encoding="UTF-8"?><svg id="uuid-6eb7e471-832e-4c25-b8a2-5af815789cc2" xmlns="http://www.w3.org/2000/svg" viewBox="0 0 832.42 171.36"><defs><style>.uuid-2aa80deb-e19a-4cec-b98f-1626b126c69f{fill:#232323;}.uuid-2c4514c2-fd0b-4991-8927-7a707f05ff31{fill:#fff;}.uuid-e55b82f8-3026-426d-bd85-8bd16e4ee125{fill:#ff692f;}</style></defs><g id="uuid-21f8535d-f403-4ab8-b460-6a1821c1f583"><path class="uuid-2aa80deb-e19a-4cec-b98f-1626b126c69f" d="M301.15,46.32h-11.03c-3.82,0-5.52,1.64-5.52,5.33v9.43c-26.31-21.72-65.34-20.49-89.95,2.87-25.46,24.59-25.46,64.35,0,88.95,12.3,11.89,29.28,18.86,46.67,18.45,16.12,0,31.4-5.74,43.28-15.99v10.66c0,3.69,1.7,5.33,5.52,5.33h11.03c3.82,0,5.52-1.64,5.52-5.33V51.24c0-3.28-1.7-4.92-5.52-4.92ZM272.3,137.73c-8.06,7.79-19.52,12.3-30.97,11.89-11.46,0-22.91-4.1-30.97-12.3-8.49-7.79-13.15-18.45-12.73-29.92-.42-11.07,4.24-21.72,12.3-29.51,8.06-8.2,19.09-12.71,30.97-12.3,11.88-.41,22.91,4.1,31.4,11.89,16.97,16.81,16.97,43.86,0,60.26Z"/><path class="uuid-2aa80deb-e19a-4cec-b98f-1626b126c69f" d="M102.58,61.08c-10.61-10.25-25.46-15.99-40.31-15.58-16.55-.41-32.25,5.74-43.7,17.22-25.03,25.41-24.61,65.17.42,90.18,12.3,11.89,29.28,18.86,46.67,18.45,14.85,0,29.28-3.69,42.01-11.07,2.97-1.64,4.24-2.87,4.24-4.51,0-.82-.42-2.05-.85-2.87l-4.24-8.2c-.42-1.64-2.12-2.87-3.82-2.87-.85,0-2.12.41-2.97.82-10.18,5.33-22.06,8.2-33.94,7.79-21.21.82-39.88-13.53-43.7-33.61h92.5c3.82,0,5.52-1.64,5.52-5.33v-6.97c.42-15.99-5.94-31.97-17.82-43.45ZM23.23,98.79c2.12-9.84,7.64-18.45,15.27-25,14.85-11.07,36.07-9.84,49.64,3.28,5.94,5.74,9.76,13.53,10.18,21.73H23.23Z"/><path class="uuid-2aa80deb-e19a-4cec-b98f-1626b126c69f" d="M142.46,170.93c-3.82,0-5.52-1.64-5.52-4.92V5.33c0-3.69,1.7-5.33,5.52-5.33h11.03c3.82,0,5.52,1.64,5.52,5.33v160.68c0,3.69-1.7,5.33-5.52,5.33h-11.03v-.41Z"/><path class="uuid-2aa80deb-e19a-4cec-b98f-1626b126c69f" d="M453.47,29.93c-2.12-2.05-3.39-4.92-3.39-7.79s1.27-5.74,3.39-7.79c4.67-4.1,11.88-4.1,16.55,0,2.12,2.05,3.39,4.92,3.39,7.79s-1.27,5.74-3.39,7.79c-4.67,4.1-11.88,4.1-16.55,0Z"/><path class="uuid-2aa80deb-e19a-4cec-b98f-1626b126c69f" d="M450.93,53.7c0-5.74,5.09-10.66,11.03-10.66s11.03,4.92,11.03,10.66v112.31c0,3.69-1.7,5.33-5.52,5.33h-11.03c-3.82,0-5.52-1.64-5.52-5.33V52.88"/><path class="uuid-2aa80deb-e19a-4cec-b98f-1626b126c69f" d="M492.08,29.93c-2.12-2.05-3.39-4.92-3.39-7.79s1.27-5.74,3.39-7.79c4.67-4.1,11.88-4.1,16.55,0,2.12,2.05,3.39,4.92,3.39,7.79s-1.27,5.74-3.39,7.79c-4.67,4.1-11.88,4.1-16.55,0Z"/><path class="uuid-2aa80deb-e19a-4cec-b98f-1626b126c69f" d="M489.54,53.7c0-5.74,5.09-10.66,11.03-10.66s11.03,4.92,11.03,10.66v112.31c0,3.69-1.7,5.33-5.52,5.33h-11.03c-3.82,0-5.52-1.64-5.52-5.33V52.88"/><path class="uuid-2aa80deb-e19a-4cec-b98f-1626b126c69f" d="M434.38,94.28c0-28.28-23.76-51.24-53.04-51.24-14,0-26.73,5.33-36.06,13.94v-5.74c0-3.69-1.7-5.33-5.52-5.33h-11.03c-3.82,0-5.52,1.64-5.52,5.33v114.36c0,3.69,1.7,5.33,5.52,5.33h11.03c3.82,0,5.52-1.64,5.52-5.33v-68.86c0-18.04,15.27-32.79,33.94-32.79s33.94,14.76,33.94,32.79v68.86c0,3.69,1.7,5.33,5.52,5.33h10.61c3.82,0,5.52-1.64,5.52-5.33v-68.86c-.42-.82-.42-1.64-.42-2.46Z"/><path class="uuid-2aa80deb-e19a-4cec-b98f-1626b126c69f" d="M638.89,94.69c0-28.28-23.77-51.24-53.04-51.24-14,0-26.73,5.33-36.06,13.94v-5.74c0-3.69-1.7-5.33-5.52-5.33h-11.03c-3.82,0-5.52,1.64-5.52,5.33v114.36c0,3.69,1.7,5.33,5.52,5.33h11.03c3.82,0,5.52-1.64,5.52-5.33v-68.86c0-18.04,14.85-32.79,33.52-32.79s33.95,14.76,33.95,32.79v68.86c0,3.69,1.69,5.33,5.51,5.33h10.61c3.82,0,5.52-1.64,5.52-5.33v-71.32Z"/><rect class="uuid-e55b82f8-3026-426d-bd85-8bd16e4ee125" x="695.95" y="34.89" width="136.47" height="136.47" rx="27.13" ry="27.13"/><path class="uuid-2c4514c2-fd0b-4991-8927-7a707f05ff31" d="M719.67,133.79l23.43-61.34h11.62l23.24,61.34h-10.67l-6.1-15.81h-24.67l-6.1,15.81h-10.76ZM738.14,109.98h21.34l-10.67-28.1-10.67,28.1Z"/><path class="uuid-2c4514c2-fd0b-4991-8927-7a707f05ff31" d="M790.53,133.79v-61.34h10.38v61.34h-10.38Z"/></g></svg>