<svg width="190" height="32" viewBox="0 0 190 32" fill="none" xmlns="http://www.w3.org/2000/svg">
<g clip-path="url(#clip0_3_10119)">
<path opacity="0.5" d="M27.7771 15.883H7.22709C6.49509 15.8824 5.78012 15.6679 5.17466 15.2673C4.56921 14.8668 4.10112 14.2985 3.83095 13.6361L0.261649 4.86538C0.0419473 4.32629 -0.0389291 3.74304 0.0260759 3.16652C0.091081 2.59 0.299993 2.03773 0.634584 1.55789C0.969175 1.07805 1.41928 0.685217 1.94563 0.413666C2.47198 0.142115 3.05858 9.59032e-05 3.65425 0L24.2042 0C24.9358 0.000363391 25.6505 0.214331 26.2559 0.614256C26.8613 1.01418 27.3297 1.58168 27.6004 2.24344L31.1697 11.0108C31.3909 11.5502 31.4729 12.1342 31.4086 12.7116C31.3443 13.2891 31.1357 13.8424 30.8009 14.3232C30.4662 14.804 30.0155 15.1975 29.4883 15.4694C28.9612 15.7414 28.3736 15.8834 27.7771 15.883Z" fill="#1775E5"/>
<path opacity="0.5" d="M29.4415 31.9999H8.89152C8.15992 31.9995 7.44525 31.7856 6.83984 31.3857C6.23443 30.9857 5.76611 30.4182 5.49538 29.7565L1.92608 20.9892C1.70638 20.4501 1.6255 19.8668 1.6905 19.2903C1.75551 18.7138 1.96442 18.1615 2.29901 17.6817C2.6336 17.2018 3.08371 16.809 3.61006 16.5374C4.13641 16.2659 4.72301 16.1239 5.31868 16.1238H25.8687C26.6007 16.1244 27.3157 16.3389 27.9211 16.7395C28.5266 17.14 28.9946 17.7083 29.2648 18.3707L32.8341 27.1414C33.0523 27.6802 33.1321 28.2627 33.0663 28.8382C33.0006 29.4138 32.7915 29.965 32.457 30.444C32.1226 30.9229 31.6731 31.315 31.1475 31.5862C30.622 31.8573 30.0363 31.9994 29.4415 31.9999Z" fill="#1775E5"/>
<path d="M26.1973 10.7355C25.9281 10.0735 25.4606 9.50557 24.8556 9.10551C24.2506 8.70545 23.5361 8.49172 22.8047 8.49207L7.10687 8.53336H6.98318C5.74276 8.53336 1.90841 8.3682 1.17688 7.11572L3.65065 13.206C3.67186 13.268 3.6966 13.3299 3.72133 13.3953L4.80273 16.0551L7.2977 22.2108V22.1798C7.56561 22.8412 8.03109 23.4092 8.63399 23.8104C9.23688 24.2115 9.94948 24.4274 10.6797 24.4301H26.1196C26.1196 24.4301 31.4205 24.3476 32.3111 25.8443L26.1973 10.7355Z" fill="#1775E5"/>
<path d="M55.0946 10.037C54.3138 9.61867 53.4981 9.26529 52.6561 8.98068C51.9103 8.71664 51.1243 8.57592 50.3308 8.56433C49.5852 8.52279 48.8446 8.70666 48.2104 9.09078C47.9558 9.27018 47.752 9.50939 47.6179 9.78614C47.4838 10.0629 47.4238 10.3682 47.4435 10.6736C47.4453 10.916 47.4979 11.1555 47.5982 11.3774C47.6985 11.5993 47.8443 11.7989 48.0266 11.9639C48.4695 12.3816 48.9807 12.7246 49.5392 12.979C50.1655 13.2791 50.8071 13.5479 51.4617 13.7841C52.0816 14.0099 52.6859 14.2743 53.271 14.5755C53.8631 14.874 54.4063 15.2567 54.8825 15.711C55.3785 16.1942 55.7671 16.7716 56.024 17.4073C56.3293 18.201 56.4745 19.0445 56.4516 19.8916C56.4555 20.9099 56.1692 21.9092 55.6247 22.7785C55.0355 23.6991 54.1965 24.4434 53.2004 24.9291C51.9769 25.5087 50.627 25.7897 49.2671 25.748C48.4483 25.746 47.6316 25.6665 46.8286 25.5106C45.1243 25.1853 43.5081 24.5186 42.0825 23.5527L43.906 20.4181C44.4124 20.7758 44.9519 21.0868 45.5175 21.3471C46.0844 21.611 46.6761 21.8207 47.2845 21.9734C47.8148 22.1129 48.3609 22.1869 48.9101 22.1936C49.417 22.1919 49.9211 22.1224 50.4085 21.9871C50.8827 21.863 51.3144 21.6183 51.6596 21.2783C51.8325 21.0926 51.9659 20.8753 52.052 20.6391C52.1382 20.4028 52.1754 20.1523 52.1614 19.902C52.1627 19.4956 52.0162 19.1019 51.7479 18.7906C51.4344 18.4247 51.0576 18.115 50.6347 17.8753C50.1512 17.5888 49.6413 17.3469 49.1116 17.1527C48.4649 16.9119 47.7969 16.6332 47.1149 16.32C46.4316 16.0053 45.7858 15.6188 45.1889 15.1673C44.5878 14.7088 44.0929 14.1319 43.7364 13.4744C43.3424 12.704 43.1505 11.8504 43.178 10.9901C43.1485 9.90443 43.4299 8.83213 43.9909 7.89337C44.5483 7.01367 45.3428 6.29961 46.2879 5.82885C47.35 5.304 48.5183 5.01491 49.7088 4.9824C51.107 4.93909 52.5021 5.13713 53.8294 5.56734C54.821 5.9234 55.7691 6.38498 56.6566 6.94369L55.0946 10.037Z" fill="#012B67"/>
<path d="M62.7632 13.3953L63.0742 15.5321L63.0176 15.3669C63.4695 14.5964 64.1061 13.9436 64.873 13.4642C65.6797 12.9896 66.6095 12.7508 67.5517 12.776C68.1669 12.765 68.7794 12.8594 69.3611 13.0547C69.8594 13.2286 70.3102 13.511 70.6793 13.8805C71.0566 14.2703 71.3138 14.7556 71.4214 15.2809L71.28 15.3085C71.7845 14.5758 72.439 13.9526 73.2025 13.4779C73.9031 13.0336 74.7201 12.7947 75.5561 12.7897C76.6413 12.7403 77.7023 13.1114 78.507 13.822C78.8706 14.1594 79.1583 14.5667 79.3517 15.018C79.5452 15.4694 79.6402 15.9549 79.6308 16.4439V25.5244H75.6763V18.0302C75.6761 17.5793 75.5898 17.1325 75.4218 16.7123C75.2663 16.3682 74.9165 16.179 74.3616 16.1411C74.057 16.1354 73.7543 16.1905 73.4723 16.3029C73.1903 16.4154 72.9349 16.5828 72.7219 16.7949C72.2613 17.2648 71.9243 17.8362 71.7394 18.4603C71.5198 19.1381 71.4089 19.845 71.4108 20.5558V25.5244H67.4103V18.0302C67.4092 17.5749 67.3068 17.1253 67.11 16.7123C66.9967 16.5294 66.8348 16.3798 66.6413 16.2792C66.4478 16.1787 66.23 16.131 66.0109 16.1411C65.7153 16.1369 65.4221 16.1928 65.1501 16.3054C64.878 16.418 64.6332 16.5847 64.4312 16.7949C63.981 17.2653 63.6485 17.8305 63.4594 18.4465C63.2409 19.1139 63.1312 19.8105 63.1342 20.511V25.5347H59.1409V13.3953H62.7632Z" fill="#012B67"/>
<path d="M88.2785 25.858C87.187 25.8706 86.1076 25.635 85.1262 25.1698C84.1775 24.7111 83.3966 23.9796 82.8892 23.0743C82.2972 21.9624 82.0123 20.7198 82.0622 19.4683C82.0302 18.2318 82.3246 17.0079 82.9175 15.9139C83.4459 14.9638 84.2224 14.1662 85.1686 13.6016C86.0618 13.0678 87.0891 12.7844 88.1371 12.7827C89.3693 12.7827 90.3046 12.9823 90.9431 13.3814C91.5353 13.7415 92.0689 14.1857 92.5263 14.6993L92.3531 15.1707L92.7242 13.3952H96.4313V25.5242H92.4415V22.8885L92.7525 23.7212C92.7171 23.7212 92.6005 23.8279 92.3991 24.0412C92.1451 24.3077 91.8684 24.5529 91.5721 24.7741C91.155 25.0878 90.6931 25.3405 90.201 25.5242C89.5882 25.755 88.9354 25.8684 88.2785 25.858ZM89.4094 22.7096C89.8462 22.7156 90.2806 22.6457 90.6922 22.5031C91.0636 22.3668 91.4026 22.1584 91.6888 21.8907C91.9925 21.5963 92.2434 21.2543 92.4309 20.8791V17.8924C92.286 17.502 92.0515 17.149 91.7453 16.8601C91.4397 16.5612 91.0739 16.3269 90.671 16.172C90.225 16.0088 89.7515 15.9282 89.2751 15.9345C88.7166 15.9324 88.1685 16.0813 87.6918 16.3647C87.2061 16.6519 86.8083 17.0606 86.5398 17.5483C86.2545 18.0874 86.1092 18.6864 86.1166 19.2928C86.124 19.8992 86.2838 20.4946 86.5822 21.027C86.8698 21.5302 87.2877 21.9513 87.7943 22.2485C88.2789 22.5438 88.8377 22.7034 89.4094 22.7096Z" fill="#012B67"/>
<path d="M103.418 13.3952L103.771 16.7259L103.686 16.227C104.039 15.5144 104.545 14.8842 105.171 14.3793C105.737 13.9078 106.364 13.511 107.037 13.1991C107.476 12.9722 107.956 12.8307 108.45 12.7827L108.252 16.6709C107.425 16.5391 106.576 16.6963 105.856 17.1148C105.205 17.5075 104.674 18.0637 104.319 18.7251C103.963 19.358 103.776 20.0679 103.775 20.7896V25.5242H99.8239V13.3952H103.418Z" fill="#012B67"/>
<path d="M111.97 8.06543H115.96V13.3403H118.982V16.3648H115.96V25.5244H111.97V16.3648H110.03V13.3403H111.97V8.06543Z" fill="#012B67"/>
<path d="M128.332 5.0959C129.843 5.05199 131.345 5.34136 132.725 5.94235C133.861 6.45361 134.813 7.28407 135.46 8.32686C136.114 9.43648 136.442 10.699 136.411 11.9776C136.409 12.8287 136.279 13.6749 136.026 14.4894C135.775 15.3242 135.359 16.1028 134.8 16.7811C134.195 17.4988 133.423 18.0651 132.548 18.4327C131.453 18.8789 130.272 19.0924 129.085 19.0589H126.12V25.5243H121.985V5.0959H128.332ZM129.039 15.1432C129.581 15.1609 130.119 15.0512 130.608 14.8232C130.996 14.6342 131.333 14.3583 131.591 14.018C131.818 13.7112 131.992 13.3692 132.103 13.0064C132.199 12.71 132.251 12.4019 132.259 12.0912C132.251 11.8158 132.218 11.5418 132.16 11.2722C132.082 10.9081 131.942 10.5591 131.746 10.24C131.514 9.8671 131.185 9.56076 130.792 9.35224C130.257 9.09394 129.663 8.97536 129.067 9.00816H126.102V15.1398L129.039 15.1432Z" fill="#1775E5"/>
<path d="M143.073 25.5793L136.973 13.3953H141.447L146.151 23.6387L143.073 25.5793ZM139.736 31.3531L148.034 13.3953H151.625L143.585 31.3531H139.736Z" fill="#1775E5"/>
<path d="M156.869 13.3952L157.184 15.532L157.127 15.3668C157.578 14.5966 158.213 13.9439 158.979 13.464C159.787 12.9903 160.718 12.7515 161.661 12.7759C162.276 12.7652 162.889 12.8595 163.471 13.0546C163.971 13.2255 164.424 13.5057 164.796 13.8735C165.172 14.2643 165.429 14.7491 165.538 15.2739L165.397 15.3015C165.901 14.5688 166.556 13.9456 167.319 13.4709C168.019 13.0262 168.837 12.7873 169.673 12.7827C170.758 12.734 171.818 13.1051 172.624 13.815C172.987 14.1524 173.275 14.5597 173.468 15.011C173.662 15.4624 173.757 15.9479 173.747 16.4369V25.5242H169.786V18.0301C169.785 17.579 169.697 17.1321 169.528 16.7122C169.376 16.3681 169.026 16.1789 168.468 16.141C168.163 16.1353 167.86 16.1904 167.578 16.3028C167.296 16.4152 167.041 16.5827 166.828 16.7948C166.361 17.2623 166.019 17.8341 165.831 18.4602C165.612 19.138 165.501 19.8448 165.503 20.5556V25.5242H161.502V18.0301C161.504 17.5749 161.403 17.1249 161.205 16.7122C161.092 16.5298 160.929 16.3806 160.736 16.2801C160.543 16.1796 160.325 16.1316 160.106 16.141C159.81 16.1363 159.516 16.192 159.244 16.3046C158.971 16.4172 158.725 16.5842 158.523 16.7948C158.074 17.2654 157.743 17.8306 157.555 18.4464C157.335 19.1136 157.224 19.8103 157.226 20.5109V25.5346H153.25V13.3952H156.869Z" fill="#1775E5"/>
<path d="M183.271 25.8579C181.933 25.8983 180.605 25.612 179.409 25.0253C178.389 24.5062 177.55 23.7038 176.999 22.7199C176.432 21.678 176.147 20.5128 176.172 19.3341C176.156 18.1645 176.492 17.016 177.14 16.0308C177.789 15.0493 178.681 14.2424 179.734 13.6842C180.844 13.0955 182.092 12.7945 183.356 12.8102C184.968 12.7499 186.544 13.2915 187.759 14.3242C188.912 15.3335 189.658 16.7913 190 18.6975L180.306 21.6945L179.423 19.5853L186.434 17.2799L185.607 17.6412C185.455 17.158 185.175 16.7224 184.794 16.3784C184.311 15.9841 183.689 15.7868 183.059 15.8278C182.513 15.8163 181.975 15.9559 181.508 16.2304C181.057 16.5011 180.699 16.8964 180.48 17.3659C180.234 17.9074 180.114 18.4946 180.126 19.0863C180.104 19.7442 180.251 20.3971 180.554 20.9857C180.818 21.4742 181.225 21.8754 181.723 22.1384C182.233 22.4006 182.801 22.5342 183.377 22.5272C183.811 22.529 184.241 22.4532 184.646 22.3035C185.069 22.1496 185.475 21.9548 185.858 21.722L187.625 24.6089C186.946 24.9866 186.224 25.2846 185.473 25.4967C184.761 25.7214 184.019 25.8431 183.271 25.8579Z" fill="#1775E5"/>
</g>
<defs>
<clipPath id="clip0_3_10119">
<rect width="190" height="32" fill="white"/>
</clipPath>
</defs>
</svg>
