<?xml version="1.0" encoding="UTF-8"?><svg id="uuid-61ddd13a-e384-434a-ae9a-f7a0916ce250" xmlns="http://www.w3.org/2000/svg" viewBox="0 0 864.31 148.2"><defs><style>.uuid-ae6b2f33-c7ed-4d05-8944-497f0b774392{fill:#232323;}.uuid-c3b4a1e5-fa3c-49fb-abd5-301aa964aebc{opacity:.5;}.uuid-c3b4a1e5-fa3c-49fb-abd5-301aa964aebc,.uuid-4cd4117e-ebda-4648-9cc1-3bafa657e691{fill:#fff;}.uuid-a6c01d3c-f9df-4027-a037-9dfec1c53582{fill:#ff692f;}</style></defs><g id="uuid-f139eb13-4423-4361-80e6-fa7bb609921b"><path class="uuid-ae6b2f33-c7ed-4d05-8944-497f0b774392" d="M195.24,119.55V24.97h30.74c28.26,0,47.35,19.1,47.35,47.35s-18.84,47.22-46.83,47.22h-31.26ZM208.06,36.74v70.9h17.53c21.06,0,34.4-13.6,34.4-35.32s-13.34-35.58-34.93-35.58h-17.01Z"/><path class="uuid-ae6b2f33-c7ed-4d05-8944-497f0b774392" d="M283.79,101.76c0-11.77,8.76-19.1,23.81-20.28l20.15-1.57v-1.83c0-10.73-6.41-14.52-15.04-14.52-10.33,0-16.22,4.58-16.22,12.3h-10.73c0-13.34,10.99-22.11,27.47-22.11s26.56,8.37,26.56,25.64v40.16h-10.47l-1.31-10.33c-3.27,7.33-12.04,11.9-22.37,11.9-13.74,0-21.85-7.72-21.85-19.36ZM327.88,91.95v-3.4l-16.35,1.31c-10.86,1.05-15.31,5.23-15.31,11.51,0,6.8,4.97,10.2,12.95,10.2,11.64,0,18.71-7.59,18.71-19.62Z"/><path class="uuid-ae6b2f33-c7ed-4d05-8944-497f0b774392" d="M360.84,119.55v-53.63h-12.56v-10.33h12.56v-20.01h12.3v20.01h12.56v10.33h-12.56v53.63h-12.3Z"/><path class="uuid-ae6b2f33-c7ed-4d05-8944-497f0b774392" d="M392.1,101.76c0-11.77,8.76-19.1,23.81-20.28l20.15-1.57v-1.83c0-10.73-6.41-14.52-15.04-14.52-10.33,0-16.22,4.58-16.22,12.3h-10.73c0-13.34,10.99-22.11,27.47-22.11s26.56,8.37,26.56,25.64v40.16h-10.46l-1.31-10.33c-3.27,7.33-12.04,11.9-22.37,11.9-13.74,0-21.85-7.72-21.85-19.36ZM436.18,91.95v-3.4l-16.35,1.31c-10.86,1.05-15.31,5.23-15.31,11.51,0,6.8,4.97,10.2,12.95,10.2,11.64,0,18.71-7.59,18.71-19.62Z"/><path class="uuid-ae6b2f33-c7ed-4d05-8944-497f0b774392" d="M493.61,23.27c18.05,0,29.7,10.07,30.74,26.42h-12.95c-.65-9.42-7.33-14.91-17.92-14.91-11.9,0-19.62,6.02-19.62,15.31,0,7.59,4.32,12.17,13.21,14.26l15.57,3.66c15.44,3.53,23.29,11.9,23.29,25.25,0,17.01-13.21,27.86-33.36,27.86s-32.05-10.07-32.83-26.29h13.08c.26,9.03,7.85,14.78,19.75,14.78,12.56,0,20.54-5.89,20.54-15.31,0-7.46-4.05-12.17-13.08-14.26l-15.57-3.53c-15.44-3.53-23.42-12.43-23.42-26.03,0-16.22,13.08-27.21,32.57-27.21Z"/><path class="uuid-ae6b2f33-c7ed-4d05-8944-497f0b774392" d="M539.26,55.58h11.12l.92,11.51c4.32-8.76,12.95-13.34,23.15-13.34,18.31,0,29.7,13.73,29.7,33.36s-10.73,34.14-29.7,34.14c-10.2,0-18.71-4.32-22.89-12.17v39.11h-12.3V55.58ZM571.83,110.13c12.56,0,20.01-9.42,20.01-22.5s-7.46-22.63-20.01-22.63-20.15,9.29-20.15,22.63,7.59,22.5,20.15,22.5Z"/><path class="uuid-ae6b2f33-c7ed-4d05-8944-497f0b774392" d="M617.09,119.42V23.27h12.3v42.12c4.06-6.93,11.77-11.64,21.72-11.64,16.35,0,24.2,10.33,24.2,26.69v39.11h-12.3v-36.37c0-12.95-6.15-18.18-15.3-18.18-11.9,0-18.31,8.63-18.31,19.62v34.8h-12.3Z"/><path class="uuid-ae6b2f33-c7ed-4d05-8944-497f0b774392" d="M687.46,87.63c0-20.02,12.69-33.88,31.26-33.88s30.09,12.56,30.09,31.53v4.58l-49.45.13c.92,13.47,7.98,20.93,20.15,20.93,9.55,0,15.83-3.92,17.92-11.25h11.51c-3.14,13.74-13.87,21.45-29.69,21.45-18.84,0-31.79-13.61-31.79-33.49ZM699.63,81.74h36.89c0-10.6-6.93-17.66-17.79-17.66s-17.53,6.41-19.1,17.66Z"/><path class="uuid-ae6b2f33-c7ed-4d05-8944-497f0b774392" d="M798.52,66.31h-5.49c-11.64,0-18.84,7.06-18.84,19.36v33.88h-12.3v-63.84h11.51l.78,9.68c2.62-6.67,9.03-11.12,17.79-11.12,2.22,0,4.06.26,6.54.78v11.25Z"/><path class="uuid-ae6b2f33-c7ed-4d05-8944-497f0b774392" d="M802.83,87.63c0-20.02,12.69-33.88,31.26-33.88s30.09,12.56,30.09,31.53v4.58l-49.45.13c.92,13.47,7.98,20.93,20.15,20.93,9.55,0,15.83-3.92,17.92-11.25h11.51c-3.14,13.74-13.87,21.45-29.69,21.45-18.84,0-31.79-13.61-31.79-33.49ZM815,81.74h36.89c0-10.6-6.93-17.66-17.79-17.66s-17.53,6.41-19.1,17.66Z"/><circle class="uuid-a6c01d3c-f9df-4027-a037-9dfec1c53582" cx="72.53" cy="72.53" r="72.53"/><path class="uuid-c3b4a1e5-fa3c-49fb-abd5-301aa964aebc" d="M74.63,72.38l-1.19-1.28c-11.46-12.35-22.23-23.86-38.11-31.63-1.63-.8-3.95-1.48-5.07-2.03-6.76,7.77-10.81,18.25-12.16,27.37,20.95,9.46,26.46,17.12,37.42,28.93l1.19,1.28c7.56,8.16,14.71,15.88,21.91,20.43,6.04,3.81,9.23,5.8,17.59,6.63,10.07-4.82,18.43-12.63,23.96-22.27-10.5-.2-16.58-2.57-23.63-7.01s-14.35-12.26-21.91-20.43Z"/><path class="uuid-4cd4117e-ebda-4648-9cc1-3bafa657e691" d="M56.71,95.02l-1.19-1.28c-10.96-11.81-16.8-19.81-37.42-28.93-.34,3.38-.48,4.11-.48,7.73,0,30.32,24.58,54.91,54.91,54.91,8.48,0,16.51-1.93,23.68-5.36-8.36-.83-11.55-2.82-17.59-6.63-7.21-4.55-14.35-12.26-21.91-20.43Z"/></g></svg>