<?xml version="1.0" encoding="UTF-8"?><svg id="Capa_2" xmlns="http://www.w3.org/2000/svg" viewBox="0 0 787.9 230.3"><defs><style>.cls-1{fill:#ffc950;}.cls-2{fill:#2ec1cc;}.cls-3{fill:#187f6b;}.cls-4{fill:#de9f00;}</style></defs><g id="Capa_1-2"><path class="cls-3" d="M357.8,38.1c0-3.4,2.8-6.1,6.9-6.1h41.4c50,0,51.3,68.3,0,68.3h-14.4v10.2c0,1.7.8,3.4,2.2,4.6,3.6,2.9,5.7,6.9,5.7,9.8s-2.8,6.1-6.9,6.1h-28.1c-4.1,0-6.9-2.6-6.9-6.1s2-6.9,5.5-9.8c1.5-1.2,2.4-2.9,2.4-4.6v-58c0-1.7-.9-3.4-2.4-4.6-3.6-2.9-5.5-6.9-5.5-9.8ZM391.6,84.6h7.6c21.1,0,21.1-36.7-.5-36.7h-7.1v36.7Z"/><path class="cls-3" d="M467.3,22.2c8.2,0,12,5.1,12,13.1v77.3c0,5.1,7.9,7.1,7.9,14.1s-2.2,4.4-5,4.4h-29.8c-2.8,0-5-1.3-5-4.4,0-6.9,7.5-8.8,7.5-13.8V46.2c0-4-8.2-.3-8.2-6.6s12.9-17.4,20.6-17.4Z"/><path class="cls-3" d="M569.8,118.4c5.5,5.3,6.1,12.5-.8,12.5h-13.8c-5.8,0-10.9-4.7-12.5-10-3.2,6.1-8.7,10.9-18.2,10.9-21.5,0-25.5-16.7-25.5-27.4v-24.4c0-1.1-.9-2.1-2-2.1-15.7,0,.4-22,14.4-22s12,3.3,12,13.1v35.9c0,7.5,4.2,11.2,8.7,11.2,8.6,0,9.9-9.9,9.9-19.9h.1c0-8-.1-16.1-.1-16.1,0-1.1-.8-2.1-1.8-2.1-15.7,0,.3-22,14.2-22s12,3.3,12,13.1v41c0,3.2,1.2,6.3,3.4,8.4Z"/><path class="cls-3" d="M600,55.9c5.9,0,11.1,4.6,11.9,12.8,3.3-7,9.2-12.8,19.4-12.8s20.7,7.3,23.6,15.3c3.4-8,9.8-15.3,21.1-15.3,21.5,0,25.6,16.7,25.6,27.4v29.1c0,1.8.8,3.6,2.2,4.7,6.7,5.4,7.9,13.7.5,13.7h-29.8c-7.3,0-6.2-8.3.3-13.6,1.4-1.2,2.4-2.8,2.4-4.6v-29.8c0-7.4-4-11.1-8.3-11.1-9.2,0-11.9,10.9-12,21v19.6c0,1.8.9,3.6,2.4,4.7,6.7,5.4,7.8,13.7.4,13.7h-29.8c-7.3,0-6.2-8.3.3-13.6,1.5-1.2,2.4-2.8,2.4-4.6v-29.8c0-7.5-4.2-11.2-8.7-11.2-9.6,0-11.6,11.6-11.6,21.6h-.1v19.1c0,1.8.9,3.6,2.4,4.7,6.7,5.4,7.9,13.7.5,13.7h-29.8c-7.3,0-6.2-8.3.3-13.6,1.5-1.2,2.2-2.8,2.2-4.6v-32.7c0-1.1-.8-2.1-1.8-2.1-15.6,0,.3-22,14.2-22Z"/><path class="cls-3" d="M742.9,56.1c20.7,0,37.3,11.6,37.3,34.8v19.1c0,3.2,1.2,6.3,3.4,8.4,5.5,5.1,6.1,12.5-.8,12.5h-13.8c-6.9,0-12.5-5.3-13.1-12-3.3,7.3-9.5,13.1-20.3,13.1s-23.6-8.7-23.6-20.8c0-23.9,27.3-24,44-32.4v-2.6c0-4.5-.9-8.4-5.9-8.4s-13.7,11.9-24.3,11.9-14.2-23.5,17-23.5ZM736.5,106.6c0,5.1,3.8,8.2,8.2,8.2s11.3-4.6,11.3-15.4h0c0-3.7.1-9.2.1-12.5-7.5,4-19.6,9.1-19.6,19.8Z"/><path class="cls-3" d="M372.1,144.9h17.7c3.2,0,5.1,1.8,4.6,4.7-.4,2.2-1.6,3.8-2.9,5.3-1.7,2.1-3.4,4.3-3,7.8l6,28.8,15-29.4c1.8-3.8.8-5.6-.3-7.3-.8-1.2-1.6-2.6-1.3-4.6.5-2.9,3.2-5.2,6.1-5.2h13.8c4.3,0,6.4,1.7,5.8,4.6-.5,2.8-3.1,5-5.9,7.4-2.1,1.8-4.3,3.6-5.7,5.9,0,0-18.1,35.1-25,49.1-2,4-5.8,5-10,5s-7.4-.8-8.1-4.5l-10.9-50.1c-.3-1.2-1-2.5-1.9-3.9-1.5-2.4-3.1-5.1-2.5-8.2.6-3.1,3.9-5.2,8.6-5.2Z"/><path class="cls-3" d="M455.8,162.1c26.8,0,19.1,33.1-4.3,33.1s-9.8-.5-11.4-.8c0,6.8,2.8,11.9,10.2,11.9s13.7-7.9,13.7-7.9c.9-.7,1.8-1,2.7-1,1.7,0,3,1.4,2.7,3.1-.9,5-9.2,16.6-25.3,16.6-35.2,0-28.8-55,11.6-55ZM440.9,188.1c1.4.3,2.9.8,4.5.8,11.4,0,13-18.5,7.4-18.5s-10.2,8.8-12,17.7Z"/><path class="cls-3" d="M494.1,162.1c4.5,0,7.7,3.3,6.9,9.6,5.2-6.7,11.7-9.6,16.8-9.6s9,3.2,8,8.9c-.8,4.5-4.5,7.1-8.8,7.1s-5.2-2.8-10-2.8-7.4,5.2-9.6,16.4l-2,11.2c-.2,1.3.2,2.6,1.1,3.4,4.2,3.9,3.9,9.9-1.4,9.9h-21.5c-5.2,0-3.4-6,2-9.8,1.2-.9,2-2,2.2-3.3l4.3-23.6c.1-.8-.3-1.5-1.1-1.5-11.2,0,3.1-15.9,13.2-15.9Z"/><path class="cls-3" d="M550.1,162.1c4.6,0,8,2.5,10.5,6.2l2.4-13.2c.1-.8-.3-1.5-1.1-1.5-11.5,0,3-15.8,13.1-15.8s8.2,2.4,7,9.4l-9.7,54c-.4,2.3,0,4.5,1.4,6,3.3,3.8,2.7,9.1-2.2,9.1h-10c-3.3,0-6-1.7-7.2-4.4-3.9,3.4-8.5,5.1-14.1,5.1-30.2,0-20.3-55,9.9-55ZM546.8,206.3c4.6,0,9-5.4,10.9-16,2.1-11.4-1-15.8-5.1-15.8s-9,5.1-10.9,15.3c-1.9,10.7-.9,16.5,5.1,16.5Z"/><path class="cls-3" d="M617,162.1c26.8,0,19.1,33.1-4.3,33.1s-9.8-.5-11.4-.8c0,6.8,2.8,11.9,10.2,11.9s13.7-7.9,13.7-7.9c.9-.7,1.8-1,2.7-1,1.7,0,3,1.4,2.7,3.1-.9,5-9.2,16.6-25.3,16.6-35.2,0-28.7-55,11.6-55ZM602,188.1c1.4.3,2.9.8,4.5.8,11.4,0,13-18.5,7.4-18.5s-10.2,8.8-12,17.7Z"/><path class="cls-2" d="M325,220c-50.7,13.6-104.6,14.1-155.1-.9-53-15.8-105.8-19.1-159.5-3.9-10.5,3-15.1-13.4-4.5-16.4,51.1-14.5,106-14.9,157,.3,52.5,15.7,104.2,18.8,157.5,4.5,10.6-2.8,15.1,13.6,4.5,16.4h0Z"/><path class="cls-2" d="M325,189.9c-50.7,13.6-104.6,14.1-155.1-.9-53-15.8-105.8-19.1-159.5-3.9-10.5,3-15.1-13.4-4.5-16.4,51.1-14.5,106-14.9,157,.3,52.5,15.7,104.2,18.8,157.5,4.5,10.6-2.8,15.1,13.6,4.5,16.4h0Z"/><path class="cls-4" d="M120.9,133.6c-5.6-.7-11.2-1.3-16.9-1.7,2.9-23,17.4-43,39.8-51.4,24.4-9.2,52.9-1.6,69.5,18.6,14.1,17.1,16.6,37.7,11.2,55.8-5.5-.5-11-1.2-16.4-2.1"/><path class="cls-4" d="M270.4,74C242.8,28.9,188.3,4.9,136.5,15.6c-57.1,11.8-98.7,61.7-101.5,119.3-4.4.7-8.9,1.5-13.3,2.5C23.2,79.8,59.9,28.1,114.2,8.2c54.7-20,118.5-2.6,155.5,42.3,23.3,28.3,34.2,64.6,31.7,100.1-4.5.9-8.9,1.7-13.4,2.4,2.7-27.1-3.1-55.1-17.7-79Z"/><path class="cls-1" d="M165.5,51.7c48.8,0,88.4,39.7,88.4,88.4s-.5,10.8-1.5,16c4.2,0,8.4-.1,12.6-.4.8-5.1,1.2-10.4,1.2-15.7,0-55.6-45.2-100.8-100.8-100.8s-96.2,40.8-100.4,92.6c4.1-.3,8.3-.4,12.5-.6,4.4-44.7,42.2-79.6,88-79.6Z"/><path class="cls-2" d="M325,159.7c-50.7,13.6-104.6,14.1-155.1-.9-53-15.8-105.8-19.1-159.5-3.9-10.5,3-15.1-13.4-4.5-16.4,51.1-14.5,106-14.9,157,.3,52.5,15.7,104.2,18.8,157.5,4.5,10.6-2.8,15.1,13.6,4.5,16.4h0Z"/><path d="M293.7,54.6c.9,1.3,2.2,1.3,4.1.3l.2.3-6.3,3.5-.2-.3c.3-.2.6-.4.9-.6,1.3-1,1.6-2,.9-3l-1.1-1.4-7.6,4.2,1.8,2.5c.9,1.3,2.3,1.3,4.1.3l.2.3-2.9,2.3-5.6-7.5h.2c1,.8,1.5.9,2.3.5,3.5-1.9,7.1-3.9,10.6-5.8,0,0,.2-.1.3-.2.5-.4.5-.9,0-1.9h.2c0-.1,5.6,7.4,5.6,7.4l-3.7,1.3-.2-.3c.3-.2.6-.4.8-.5,1.2-.9,1.3-1.8.6-2.8l-1.8-2.5-4.4,2.4,1.1,1.4Z"/><path d="M294,67.6c1.1-.7,1-1.9.9-3.1,0-1.3-.2-2.7,1.1-3.5,1.7-1.1,3.4-.2,4.4,1.4.4.6.5,1.1.6,1.5,0,.3.2.5.3.7.1.2.3.4.6.5l.2.3-3.8,1-.2-.3c.4-.1.8-.3,1.1-.5,1.2-.8,1.6-1.9,1-3-.7-1.1-1.9-1.3-3-.6-1.1.7-1,1.8-.9,3.1,0,1.3.2,2.7-1.1,3.6-1.8,1.2-3.8,0-4.8-1.6-.4-.6-.5-1.1-.6-1.5,0-.3-.2-.6-.3-.8-.1-.2-.3-.4-.6-.5l-.2-.3,3.8-1,.2.3c-.4.1-.7.3-1,.4-1.2.8-1.7,2-.9,3.2.8,1.3,2.3,1.6,3.5.8Z"/><path d="M295.7,72.4c-.1,0-.2.1-.3.2-.5.3-.6.6-.4,1,.4.8,1.2.9,3.9.7l.2.3c-3.2.5-4.3.3-5-.9-.4-.8-.2-1.7.4-2.1,0,0,.1,0,.2,0l8-2.9-.7-1.3.5-.2.7,1.3,3.7-.5.2.4-3.3,1.2,1.1,1.9-.5.2-1.1-1.9-7.4,2.8Z"/><path d="M296.3,75.8c.6-.2,1.2.1,1.5.8.3.6.2,1.1-.3,1.3,0,0-.1,0-.2,0-.6.2-1.3-.1-1.6-.7-.3-.7-.1-1.1.5-1.4Z"/><path d="M301.7,87.9c.5,1.3,1.1,1.6,2.6,1.3v.3c0,0-2.6,1.1-2.6,1.1l-2.5-6.7c2-.4,4,.7,5.9,1.7,1.9,1,3.7,2,5.5,1.6.1,0,.3,0,.4-.1,1.1-.4,1.5-1.3,1.1-2.4-.6-1.6-1.8-2.3-3.6-2.1v-.3c0,0,2.8-.7,2.8-.7v.2c0,.2-.1.4,0,.7,0,.2.2.4.4.6.3.3.6.6.9,1.4.6,1.7,0,3.1-1.4,3.6-.1,0-.3,0-.5.1-1.9.4-4.2-1-6.2-2.3-1.6-1-3-2-4.1-1.8l1.3,3.6Z"/><path d="M312.1,97.1c-2.8.8-8.3,1.4-9.3-2.1-.6-2,.7-3.2,3.1-3.9,2.8-.8,8.3-1.5,9.3,2.1.6,2-.7,3.2-3.1,3.9ZM305.6,92.4c-1.8.5-2.7,1.3-2.3,2.6.5,1.9,2.8,2,6.5,1.5,1.1-.2,2-.3,2.8-.6,1.8-.5,2.7-1.3,2.3-2.6-.6-1.9-2.8-2-6.5-1.5-1.1.2-2,.3-2.8.6Z"/><path d="M306.1,101.6c0,0-.2,0-.2,0-.5.1-.6.5-.6,1.3h-.2s-.8-3.6-.8-3.6h.2c.4.9.8,1.2,1.5,1.1,2.8-.3,5.6-.5,8.4-.8.1,0,.2,0,.3,0,.5-.1.8-.4.6-1,0-.1-.1-.3-.2-.5h.2c.5,1.1,1.3,1.9,1.8,2.1v.3c0,0-11,1-11,1Z"/><path d="M307.6,109.2c0,0-.2,0-.2,0-.5,0-.7.4-.7,1.3h-.2s-.8-4.4-.8-4.4h.2c.5,1.7.8,2,1.7,2h1.5s-.9-4.9-.9-4.9h.4s10,5.1,10,5.1v.5c0,0-8.5.4-8.5.4l.2,1.2h-.8s-.2-1.1-.2-1.1h-1.6ZM309.2,104.1l.7,4,6.5-.3-7.3-3.7Z"/><path class="cls-3" d="M293.7,54.6c.9,1.3,2.2,1.3,4.1.3l.2.3-6.3,3.5-.2-.3c.3-.2.6-.4.9-.6,1.3-1,1.6-2,.9-3l-1.1-1.4-7.6,4.2,1.8,2.5c.9,1.3,2.3,1.3,4.1.3l.2.3-2.9,2.3-5.6-7.5h.2c1,.8,1.5.9,2.3.5,3.5-1.9,7.1-3.9,10.6-5.8,0,0,.2-.1.3-.2.5-.4.5-.9,0-1.9h.2c0-.1,5.6,7.4,5.6,7.4l-3.7,1.3-.2-.3c.3-.2.6-.4.8-.5,1.2-.9,1.3-1.8.6-2.8l-1.8-2.5-4.4,2.4,1.1,1.4Z"/><path class="cls-3" d="M294,67.6c1.1-.7,1-1.9.9-3.1,0-1.3-.2-2.7,1.1-3.5,1.7-1.1,3.4-.2,4.4,1.4.4.6.5,1.1.6,1.5,0,.3.2.5.3.7.1.2.3.4.6.5l.2.3-3.8,1-.2-.3c.4-.1.8-.3,1.1-.5,1.2-.8,1.6-1.9,1-3-.7-1.1-1.9-1.3-3-.6-1.1.7-1,1.8-.9,3.1,0,1.3.2,2.7-1.1,3.6-1.8,1.2-3.8,0-4.8-1.6-.4-.6-.5-1.1-.6-1.5,0-.3-.2-.6-.3-.8-.1-.2-.3-.4-.6-.5l-.2-.3,3.8-1,.2.3c-.4.1-.7.3-1,.4-1.2.8-1.7,2-.9,3.2.8,1.3,2.3,1.6,3.5.8Z"/><path class="cls-3" d="M295.7,72.4c-.1,0-.2.1-.3.2-.5.3-.6.6-.4,1,.4.8,1.2.9,3.9.7l.2.3c-3.2.5-4.3.3-5-.9-.4-.8-.2-1.7.4-2.1,0,0,.1,0,.2,0l8-2.9-.7-1.3.5-.2.7,1.3,3.7-.5.2.4-3.3,1.2,1.1,1.9-.5.2-1.1-1.9-7.4,2.8Z"/><path class="cls-3" d="M296.3,75.8c.6-.2,1.2.1,1.5.8.3.6.2,1.1-.3,1.3,0,0-.1,0-.2,0-.6.2-1.3-.1-1.6-.7-.3-.7-.1-1.1.5-1.4Z"/><path class="cls-3" d="M301.7,87.9c.5,1.3,1.1,1.6,2.6,1.3v.3c0,0-2.6,1.1-2.6,1.1l-2.5-6.7c2-.4,4,.7,5.9,1.7,1.9,1,3.7,2,5.5,1.6.1,0,.3,0,.4-.1,1.1-.4,1.5-1.3,1.1-2.4-.6-1.6-1.8-2.3-3.6-2.1v-.3c0,0,2.8-.7,2.8-.7v.2c0,.2-.1.4,0,.7,0,.2.2.4.4.6.3.3.6.6.9,1.4.6,1.7,0,3.1-1.4,3.6-.1,0-.3,0-.5.1-1.9.4-4.2-1-6.2-2.3-1.6-1-3-2-4.1-1.8l1.3,3.6Z"/><path class="cls-3" d="M312.1,97.1c-2.8.8-8.3,1.4-9.3-2.1-.6-2,.7-3.2,3.1-3.9,2.8-.8,8.3-1.5,9.3,2.1.6,2-.7,3.2-3.1,3.9ZM305.6,92.4c-1.8.5-2.7,1.3-2.3,2.6.5,1.9,2.8,2,6.5,1.5,1.1-.2,2-.3,2.8-.6,1.8-.5,2.7-1.3,2.3-2.6-.6-1.9-2.8-2-6.5-1.5-1.1.2-2,.3-2.8.6Z"/><path class="cls-3" d="M306.1,101.6c0,0-.2,0-.2,0-.5.1-.6.5-.6,1.3h-.2s-.8-3.6-.8-3.6h.2c.4.9.8,1.2,1.5,1.1,2.8-.3,5.6-.5,8.4-.8.1,0,.2,0,.3,0,.5-.1.8-.4.6-1,0-.1-.1-.3-.2-.5h.2c.5,1.1,1.3,1.9,1.8,2.1v.3c0,0-11,1-11,1Z"/><path class="cls-3" d="M307.6,109.2c0,0-.2,0-.2,0-.5,0-.7.4-.7,1.3h-.2s-.8-4.4-.8-4.4h.2c.5,1.7.8,2,1.7,2h1.5s-.9-4.9-.9-4.9h.4s10,5.1,10,5.1v.5c0,0-8.5.4-8.5.4l.2,1.2h-.8s-.2-1.1-.2-1.1h-1.6ZM309.2,104.1l.7,4,6.5-.3-7.3-3.7Z"/></g></svg>