<?xml version="1.0" encoding="UTF-8"?>
<svg id="Capa_2" xmlns="http://www.w3.org/2000/svg" version="1.1" viewBox="0 0 418.9 82.9">
  <!-- Generator: Adobe Illustrator 30.0.0, SVG Export Plug-In . SVG Version: 2.1.1 Build 123)  -->
  <defs>
    <style>
      .st0 {
        fill: #bfbfbf;
      }
    </style>
  </defs>
  <g id="Capa_1-2">
    <path class="st0" d="M0,81.7V1.2h44.5c19.8,0,31.1,8.8,31.1,24.2s-7.6,20.9-22.7,22.4v1c7.2,1.9,10,5.8,13,11.4l11.7,21.6h-20.9l-11.1-20.9c-3.2-6.2-6.2-8.3-15.6-8.3h-11.9v29.2H0ZM18,38.9h26.3c8.5,0,12.4-2.4,12.4-10.8s-3.8-10.7-12.4-10.7h-26.3s0,21.5,0,21.5Z"/>
    <path class="st0" d="M80.1,41.5C80.1,16.3,96.7,0,123.4,0s43.7,16.3,43.7,41.5-16.5,41.5-43.7,41.5-43.3-16.3-43.3-41.5ZM147.9,41.5c0-17.9-6.8-24.2-24.5-24.2s-24.2,6.2-24.2,24.2,6.5,24.2,24.2,24.2,24.5-6.2,24.5-24.2Z"/>
    <path class="st0" d="M171.9,41.5c0-25.1,17.1-41.5,44.7-41.5s41.2,11.8,41.2,31.1v1h-20.1v-1c0-9.4-6.1-13.8-21.6-13.8s-25.1,6.2-25.1,24.2,6.6,24.2,24.3,24.2,24.2-2.9,24.6-13.1h-27.3v-13.3h45.3v42.5h-16.7v-17.3h-1c-2.8,10.6-11.2,18.5-28.6,18.5s-39.8-16.3-39.8-41.5h.1Z"/>
    <path class="st0" d="M265.5,81.7V1.2h68.1v16.2h-50.1v15.7h48.3v16.1h-48.3v16.2h50.1v16.2h-68.1Z"/>
    <path class="st0" d="M340.6,81.7V1.2h44.5c19.8,0,31.1,8.8,31.1,24.2s-7.6,20.9-22.7,22.4v1c7.2,1.9,10,5.8,13,11.4l11.7,21.6h-20.9l-11.1-20.9c-3.2-6.2-6.2-8.3-15.6-8.3h-11.9v29.2h-18.1ZM358.7,38.9h26.3c8.5,0,12.4-2.4,12.4-10.8s-3.8-10.7-12.4-10.7h-26.3v21.5Z"/>
  </g>
</svg>